<?xml version="1.0" encoding="UTF-8"?>
<svg id="Layer_2" data-name="Layer 2" xmlns="http://www.w3.org/2000/svg" viewBox="0 0 997.07 1215.58">
  <defs>
    <style>
      .cls-1 {
        fill: none;
        stroke: #fca9b3;
        stroke-linecap: round;
        stroke-linejoin: round;
        stroke-width: 3px;
      }
    </style>
  </defs>
  <g id="Layer_1-2" data-name="Layer 1">
    <path class="cls-1" d="M316.56,61.49c.3.52,71-41.75,71.33-41.18,1.53,2.66-114.91,68-113.13,71.09,1.53,2.65,165.96-99.72,167.65-96.79,3.15,5.46-191.39,110.8-188.9,115.11,2.27,3.93,198.7-120.45,201.18-116.15,2.91,5.04-211.62,120.62-208.46,126.1,2.18,3.78,227.17-137.32,229.84-132.7,3.8,6.58-243.5,136.41-239.32,143.65,2.55,4.42,259.43-155.31,261.83-151.17,4.62,8.01-276.65,157.28-272.99,163.62,3.24,5.61,278.49-168.34,281.76-162.67,3.91,6.77-299.45,168.6-295.13,176.09,2.88,4.99,297.64-178.79,300.65-173.58,4.84,8.38-313.24,176.56-309.05,183.8S517.7-23.56,521.61-16.78c5.53,9.58-332.9,187.32-328.06,195.7,3.74,6.47,336.63-202.02,339.95-196.27,5.05,8.75-339.23,190.66-334.73,198.45,4.81,8.32,327.24-199.04,331.62-191.46C536.27-.16,186.14,184.9,190.22,191.96c3.83,6.64,343.3-209.63,348.24-201.06,5.97,10.34-369.64,205.84-364.01,215.59,5.12,8.86,362.03-220.21,366.88-211.82,6.23,10.79-378.03,209.68-371.72,220.61,4.91,8.5,375.74-225.64,379.51-219.11,5.8,10.05-379.24,213.54-374.63,221.52C179.97,227.19,545.2-7.37,549.98.91c6.43,11.13-380.82,211.56-374.9,221.81,4.4,7.62,372.78-228.26,378.42-218.48,5.89,10.19-394.82,222.42-389.71,231.27S553.18-.73,558.13,7.84c5.72,9.91-401.72,221.48-394.84,233.39,5.61,9.71,390.89-239.05,396.68-229.03,6.79,11.76-401.88,225.69-396.81,234.48,5.88,10.18,398.53-239.66,402.67-232.48,6.29,10.9-420.26,234.38-414.41,244.52,4.56,7.9,427.25-256.86,431.67-249.22,7.41,12.83-432.85,240.97-426.65,251.7,5.14,8.91,421.16-253.68,425.72-245.79,6.14,10.64-444,249.74-438.57,259.15,6.13,10.62,433.94-262.51,439.13-253.53,5.36,9.28-439.03,246.3-433.53,255.82,5.42,9.38,437.49-263.05,442.02-255.2,5.44,9.43-447.76,248.27-440.64,260.6,4.73,8.19,433.06-264.3,439.24-253.6,6.27,10.86-459.33,257.03-453.05,267.9,5.8,10.05,452.78-274.61,458.5-264.71,6.08,10.54-463.8,255.73-456.19,268.92,5.55,9.62,450.86-270.7,455.36-262.9,6.21,10.75-464.97,259.34-458.4,270.72,5.08,8.8,446.75-271.7,452.71-261.37,6.37,11.03-462.63,254.5-454.82,268.04,5.86,10.15,452.93-274.32,458.48-264.7,7.41,12.83-464.01,255.65-456.3,269.01,6.19,10.72,448.65-272,454.27-262.27,6.71,11.62-468.35,263.31-462.61,273.24,4.91,8.5,458.77-279.47,465.09-268.52,7.4,12.82-462.61,255.07-455,268.27,6.88,11.92,448.67-271.55,454.09-262.17,6.55,11.34-470.15,263.87-464.2,274.18,5.43,9.4,459.94-278.49,465.54-268.78,7.69,13.33-479.65,267.99-473.34,278.94,7.01,12.14,478.15-290.29,484.32-279.62,6.88,11.92-480.01,266.87-472.87,279.24,6.49,11.24,465.61-282.84,471.68-272.32,6.12,10.61-490.48,274.34-484.23,285.16,6.81,11.8,474.42-287.22,480.18-277.23,7.36,12.74-476,266.53-470.04,276.86,4.8,8.32,464.44-279.86,469.51-271.07,6.04,10.46-473.04,262.83-466.02,274.99,6.6,11.44,470.71-287.53,477.53-275.7,5.87,10.17-501.19,276.76-493.33,290.39,6.75,11.69,497.72-303.3,504.62-291.34,6.51,11.28-512.51,287.99-506.38,298.61,7.7,13.33,517.02-314.03,523.74-302.38,7.82,13.55-524.3,291.26-517.04,303.84,7.72,13.37,521.4-317.62,528.58-305.18,7.33,12.7-537.27,295.52-528.57,310.57,7.05,12.22,526.43-317.94,532.49-307.43,6.3,10.91-540.06,301.87-533.29,313.59,8.34,14.45,545.14-334.22,553.58-319.61,7.52,13.02-558.14,306.57-548.89,322.61,8.31,14.4,554.92-336.97,562.1-324.53,8.55,14.81-577.43,322.22-569.99,335.12,8.4,14.55,563.28-341.12,570.16-329.18,9.47,16.4-576.99,319.8-568.88,333.85,8.23,14.26,571.02-350.03,579.83-334.77,7.23,12.53-589.6,326-580.8,341.24,8.43,14.61,590.27-358.97,598.14-345.34,7.31,12.65-602.71,332.36-593.58,348.17S711.15,69.93,720.32,85.82c8.94,15.48-606.72,336.89-598.5,351.12,8.06,13.95,601.59-368.07,610.58-352.52,9.49,16.43-622.41,347.92-615,360.77,8.62,14.93,608.77-369.62,616.62-356.01,8.58,14.85-627.05,349.18-619.23,362.73,6.7,11.6,612.57-374.74,621.69-358.93,9.43,16.33-637.22,348.69-626.42,367.39,8.59,14.88,617.92-373.07,624.98-360.83,10.54,18.25-624.81,346.66-616.04,361.86,7.14,12.37,617.2-371.84,623.91-360.21,9.88,17.11-635.39,353.04-627.02,367.54,7.35,12.73,625.44-378.75,633.08-365.51,8.56,14.82-639.67,353.09-630.32,369.29,7.54,13.06,633.18-387.67,642.75-371.09,7.8,13.5-653.6,362.74-644.85,377.89,9.17,15.88,633.94-381.44,640.62-369.86,8.42,14.58-638.92,350.1-628.06,368.92,7.12,12.34,615.21-376.81,624.57-360.6,9.68,16.77-648.02,356.45-637.91,373.97,9.03,15.64,632.66-382.08,639.94-369.47,8.7,15.06-630.53,349.41-621.68,364.75,9.14,15.83,632.69-385.33,641.37-370.29,8.3,14.37-657.05,359.5-645.89,378.84,9.82,17,635.9-389.79,645.71-372.8,8.54,14.8-660.84,364.5-650.85,381.81,9.76,16.91,645.46-391.43,653.59-377.35,9.1,15.76-647.07,355.09-636.55,373.31,6.85,11.87,633.01-382.94,640.57-369.83,10.69,18.51-654.4,358.36-643.67,376.94,7.16,12.39,631.9-381.37,639.07-368.97,9.13,15.81-655.16,366.11-647.39,379.56,8.36,14.49,650.65-393.43,658.35-380.1,10.04,17.39-662.02,366.27-652.42,382.9,7.98,13.82,641.02-391.01,650.08-375.32,10.14,17.56-653.69,358.52-643.06,376.92,7.64,13.24,631.23-382.02,638.84-368.84,11.11,19.24-667.98,365.41-656.83,384.71,8.14,14.1,659.31-397.24,666.49-384.8,8.98,15.56-677.89,379.03-669.91,392.85,8.37,14.51,653.88-401.65,664.33-383.55,9.29,16.1-697.58,384.97-687.56,402.33,8.9,15.42,671.73-408.04,680.48-392.88S76.12,563.55,84.93,578.81c8.81,15.25,703.37-423.67,710.98-410.48,11.08,19.19-723.93,400.76-713.88,418.17,10.84,18.78,702.49-429.28,712.75-411.5,10.85,18.79-734.96,405.2-724.23,423.8,9.08,15.73,710.68-435.79,721.71-416.68,12.5,21.64-740.92,405.38-728.81,426.36,9.03,15.65,710.12-430.93,719.19-415.22,9.22,15.96-751.2,410.43-738.63,432.19,7.94,13.75,727.9-445.66,738.91-426.61,9.39,16.27-747.02,416.49-738.01,432.1,8.93,15.46,738.76-446.45,747.39-431.51,9.85,17.06-764.24,420.08-752.43,440.54,9.87,17.09,739.65-453.69,751.19-433.7,12.8,22.16-778.04,427.12-765.83,448.28,10.08,17.47,753.01-461.34,764.52-441.4,12.67,21.94-778.25,428.91-766.82,448.7,9.64,16.7,748.63-455.24,758.6-437.98C792.29,242.52,4.3,651.4,16.14,671.9c9.53,16.51,749.73-457.62,760.45-439.04C788.99,254.35-5.79,665.56,4.76,683.82c10.38,17.98,761.02-462.69,771.12-445.2C787.71,259.12-11.33,672.93-.24,692.15c11.75,20.35,764.14-463.5,773.8-446.76C784.85,264.95-9.02,677.32,1.97,696.36c10.17,17.62,760.22-459.09,768.96-443.96,10.81,18.73-792.59,437.42-781.1,457.32C-.5,726.48,746.91,245.13,758.81,265.74c11.65,20.17-783.44,436.66-774.18,452.69,8.17,14.15,754.81-457.76,764.32-441.28,9.03,15.64-772.7,430.85-763.48,446.82,10.92,18.92,760.84-458.34,769.1-444.04,12.02,20.82-794.35,437.8-782.66,458.05,8.33,14.44,752.73-461.29,764.29-441.26,9.83,17.03-762.87,421.48-751.94,440.4,9.25,16.03,744.15-453.48,754.48-435.6,9.27,16.06-766.32,425.2-756.5,442.2,12.15,21.04,745.83-457.3,757.39-437.28S-28.87,731.35-18.06,750.07c12.18,21.09,772.64-470.48,783.2-452.18,13.33,23.09-803.96,441.17-791.58,462.6,10.43,18.07,789.56-482.34,801.03-462.48,12.91,22.35-821.46,457-811.47,474.3,9.08,15.73,815.94-500.86,828.83-478.53,11,19.05-832.47,459.78-820.97,479.69,11.29,19.56,825.47-498.03,834.75-481.94,13.01,22.53-849.89,471.59-839.27,489.99,12.92,22.37,845.86-511.78,856.01-494.21,13.57,23.5-857.99,471.12-844.89,493.83,11.52,19.96,850.95-515.7,861.52-497.4,12.55,21.75-880.66,490.1-870.22,508.19,12.88,22.31,860.4-520.58,870.72-502.71,10.41,18.03-886.42,482.89-871.49,508.77,10.99,19.04,872.94-532.08,885.1-511.02,11.75,20.35-892.64,491.71-880.13,513.39,12.16,21.06,881.36-536.36,893.27-515.73,11.66,20.2-906.09,493.63-890.68,520.31,12.6,21.82,876.76-536.83,890.03-513.86,14.08,24.38-894.26,495.22-882.41,515.74,13.44,23.28,880.62-534.81,892.04-515.02,12.83,22.22-903.39,501.36-891.97,521.14,12.84,22.24,887.49-540.67,899.73-519.46,13.66,23.66-911.31,501.9-898.51,524.07,12.67,21.95,896.17-542.91,907.21-523.78,15.74,27.26-919.45,510.04-908.1,529.71,13.14,22.76,903.22-550.5,915.79-528.73,11.71,20.28-925.59,511.84-913.21,533.27,11.9,20.62,914.91-553.07,925.67-534.44C923.92,314.33-19.72,807.31-6.89,829.53c13.06,22.63,914.79-554.35,926.13-534.7C932.36,317.55-20.34,815.13-8.22,836.12c10.07,17.43,912.68-560.13,927.05-535.23C930.82,321.66-19.27,819.31-6.83,840.86c14.02,24.29,914.6-553.19,925.49-534.33S-13.71,823.96-2.08,844.1c11.77,20.38,907.02-557.71,921.76-532.18C931.75,332.82-4.21,822.01,8.23,843.55c10.92,18.92,900.94-549.37,913.59-527.46C936.63,341.75-8.42,825.74,5.92,850.59c11.08,19.19,909.61-555.62,922.8-532.78C939.8,337-6.48,833.81,6.44,856.19c10.95,18.96,922.98-564.79,936.79-540.86C957.67,340.34,6.76,829.43,20.84,853.81c12.96,22.45,908.58-558.83,923.41-533.13C958.62,345.56,12.3,838.6,23.72,858.39c10.2,17.66,908.05-549.41,918.94-530.55C955.64,350.31,2.89,845.94,16.15,868.91c14.07,24.38,916.8-563.76,931.72-537.93C960.49,352.83,11.49,848.33,24.1,870.17c12.26,21.23,910.2-559.31,924.84-533.96,14.47,25.06-922.01,509.98-909.72,531.26,13.45,23.3,894.08-549.36,908.44-524.49,12.58,21.79-918.64,500.48-903.23,527.18,11.97,20.73,901.14-552.38,915.04-528.3,11.27,19.52-932,511.36-917.95,535.69,10.71,18.55,903.17-555.15,917.76-529.87,13.84,23.98-926.25,508.65-912.28,532.86,10.46,18.12,906.39-551.13,918.44-530.26,14.43,25-918.02,511.5-907.46,529.8,12.95,22.43,892.8-546.82,906.38-523.3,12.2,21.14-899.25,498.22-887.71,518.21,10.94,18.95,864.42-532.01,878.68-507.31,12.91,22.36-889.62,484.45-874.54,510.57,10.33,17.89,871.56-529.26,882.85-509.71,12.99,22.49-889.06,486.28-875.06,510.53,10.81,18.72,861.41-522.89,872.47-503.72,11.46,19.85-876.29,480.12-862.51,503.98,12.81,22.18,851.61-518.91,863.4-498.49,13.75,23.81-861.1,476.9-849.6,496.81,13.11,22.71,843.36-512.38,854.39-493.28,11.98,20.74-861.6,477.19-850.12,497.09,12.08,20.92,836.91-513.33,849.96-490.72,11.21,19.42-847.02,462.6-833.21,486.52,10.94,18.95,814.49-499.35,827.09-477.52,13.53,23.44-835.68,460.31-823.76,480.97,11.4,19.75,814.98-492.75,824.6-476.08,10.08,17.46-807.63,443.5-795.5,464.52,12.71,22.01,782.65-472.99,791.8-457.14,12.26,21.24-768.82,426.3-758.81,443.63,11.81,20.46,755.45-458.24,765.01-441.68,9.27,16.05-761.98,415.7-749.09,438.02,10.67,18.48,734.9-447.01,744.73-429.97,8.69,15.06-760.53,419.75-749.62,438.64,10.58,18.32,743.58-455.59,754.96-435.88,12.5,21.65-777.22,427.52-765.72,447.43,8.11,14.05,759.85-462.86,770.31-444.74,9.88,17.11-799.15,440.8-787.94,460.21,11.06,19.15,771.97-473.62,784.06-452.68,11.57,20.04-787.24,435.78-776.59,454.22,9.7,16.8,762.68-462.76,772.39-445.94,10.12,17.54-791.83,439.15-781.64,456.8,8.45,14.64,763.75-465.34,774.31-447.05,10.44,18.08-798.44,438.42-786.22,459.58,8.65,14.98,780.13-476.86,791.58-457.02,11.18,19.36-819.22,449.02-806.57,470.93,11.95,20.7,799.19-485.49,809.62-467.43,9.26,16.05-809.35,448.3-798.83,466.52,9.62,16.66,787.29-476.94,796.99-460.14,9.77,16.93-815.9,452.26-805.3,470.61,11.85,20.53,793.72-479.28,802.82-463.51,12.98,22.47-815.49,450.98-804.6,469.85,9.65,16.72,784.35-477.03,794.83-458.89,13.71,23.75-811.53,447.91-800.05,467.8,11.23,19.46,788.45-480.88,799.57-461.63,11.25,19.49-807.67,445.42-796.05,465.54,11.22,19.44,788.19-484.57,800.97-462.44,13.8,23.9-828.57,457.15-816.63,477.83,11.33,19.63,798.66-484.99,809-467.08,12.96,22.44-809.88,449.53-799.46,467.57,11.05,19.14,786.32-474.87,795.36-459.2,11.22,19.43-804.52,442.7-792.8,463.01,9.32,16.15,775.66-473.14,786.62-454.16,11.15,19.31-808.09,447.77-797.33,466.41,11.7,20.27,774.95-472.3,785.73-453.64,9.97,17.26-799.83,438.59-787.11,460.63,11.27,19.52,789.53-477.09,798.73-461.15,12.93,22.39-803.7,438.3-790.2,461.68,9.64,16.69,768.32-467.55,778.69-449.58,9.67,16.75-795.14,436.47-783.01,457.49,12.09,20.95,754.89-461.78,766.13-442.32,9.05,15.67-774.54,423.69-761.65,446.01,11.75,20.36,754.78-460.7,765.57-442,10.48,18.15-772.99,425.67-761.63,445.34,8.88,15.39,740.5-447.43,749.12-432.5,12.35,21.39-753.27,420.11-744.37,435.53,8.79,15.22,720.98-442.78,732.46-422.89,9.61,16.65-739.23,412.73-730.71,427.47,11.73,20.31,718-434.98,726.85-419.65,12.8,22.16-747.49,417.22-738.88,432.14,9.8,16.97,720.58-441.72,731.71-422.45,10.5,18.19-727.88,405.06-718.72,420.93,9.96,17.26,699.43-426.77,709.36-409.55,8.87,15.37-714.62,398.05-705.83,413.26,9.89,17.13,690.11-422.16,700.38-404.37,8.2,14.21-704.35,393.24-696.03,407.65,9.18,15.89,684.97-415.33,693.57-400.43,9.41,16.3-713.77,389.53-701.71,410.41,9.26,16.04,685.57-421.06,696.5-402.13,9.34,16.18-700.33,388.21-690.69,404.89,8.99,15.58,688.12-419.71,697.83-402.89,8.57,14.85-699.67,386.75-689.64,404.12s696.19-421.17,704.51-406.75c11.08,19.19-709.1,396.03-700.85,410.32,7.72,13.38,706.81-429.67,716.16-413.48,8.9,15.42-726.54,400.37-715.52,419.45,8.17,14.16,710.11-431.24,719.31-415.3s-726.11,404.1-716.89,420.07c9.31,16.13,713.31-437.49,724.42-418.24,11.59,20.08-728,398.08-715.79,419.23,11.26,19.51,705.36-428.56,714.59-412.57,9.47,16.41-734.15,408.61-725.09,424.3,7.96,13.79,718.26-440.5,729.44-421.14,8.46,14.65-724.76,397.4-713.3,417.24,9.65,16.71,718.98-436.83,728.38-420.53,9.62,16.67-734.45,407.01-724.38,424.45,10.16,17.59,712.37-433.36,721.93-416.8,11,19.06-733.48,403.16-721.97,423.1,9.43,16.33,724.02-437.73,732.56-422.94,10.04,17.39-742.22,413.53-733.47,428.68,11.38,19.71,728.74-444.66,739.1-426.72,12.3,21.31-743.01,408.67-731.68,428.3,9.53,16.5,727.19-441.51,736.57-425.26,11.7,20.27-739.77,411.88-730.43,428.05,10.38,17.97,719.15-435.99,728.15-420.4,10.15,17.58-730.53,399.03-718.13,420.5,11.4,19.75,709.36-430.55,718.45-414.8,11.32,19.62-724.49,398.8-713.53,417.78,8.81,15.25,715.07-436.87,725.47-418.85s-726.51,401.08-716.24,418.88c9.22,15.97,707.27-427.6,715.61-413.16,12.24,21.21-720.37,394.94-708.82,414.96,10.71,18.54,698.19-421.71,706.25-407.75,11.53,19.98-709.55,394.28-700.34,410.24,7.7,13.33,694.17-422.62,703.63-406.24s-692.88,382.21-682.56,400.09c8.23,14.25,677.21-412.74,686.63-396.43,8.04,13.92-688.53,380.28-678.58,397.5,8.53,14.77,677.8-408.42,685.2-395.6,11.4,19.75-687.36,383.12-679.07,397.46,8.92,15.44,668.51-410.54,679.15-392.11,11.03,19.11-642.98,357.54-634.77,371.77,6.98,12.09,634.34-388.32,643.9-371.76,9.93,17.2-634.47,347.41-623.81,365.88,6.93,12.01,620.35-374.38,627.38-362.22,11.01,19.07-652.32,357.51-641.51,376.23,9.84,17.04,627.31-383.61,636.59-367.53,9.88,17.12-645.83,359.58-637.81,373.47,9.46,16.39,633.14-383.86,641.07-370.12,9.01,15.61-649.96,357.94-639.76,375.6,9.52,16.49,629.95-380.79,637.35-367.97,10.71,18.56-654.34,359.52-644.05,377.34,9.39,16.26,640.33-389.57,648.94-374.66,10.08,17.47-655.63,366.21-647.68,379.98,7.22,12.5,647.99-392.01,655.74-378.59,8.95,15.5-662.72,368.12-654.14,382.97,7.61,13.17,647.51-391.37,655.1-378.22,8.79,15.22-667.67,373-659.64,386.92,9.58,16.59,645.86-394.74,655.32-378.35,10.14,17.57-657.12,363.38-647.48,380.09,8.01,13.87,642.32-391.29,651.17-375.96,9.72,16.84-669.96,369.75-659.85,387.25,8.53,14.78,645.99-393.95,655.08-378.21,9,15.6-662.98,366.96-653.49,383.39,10.27,17.79,649.44-391.84,656.75-379.17,7.93,13.74-656.28,364.12-647.47,379.37,9.11,15.78,641.86-394.07,652.04-376.45,11.41,19.76-673.84,372.37-664.31,388.87,9.53,16.51,655.72-397.79,664.04-383.38,8.3,14.37-662.29,365.89-652.85,382.23,7.45,12.9,635.07-388.16,644.38-372.03,7.68,13.3-660.94,368.94-652.91,382.84,7.22,12.51,643.88-391.78,652.55-376.75,8.43,14.6-663.23,364.31-652.45,382.98,9.49,16.44,648.08-395.69,657.4-379.55,11.04,19.13-660.78,366.34-651.58,382.26,9.24,16,635.58-385.85,643.76-371.67,8.17,14.15-640.31,354.73-631.41,370.13,8,13.86,626.61-381.99,635.37-366.83,10.9,18.87-658.28,364.38-648.91,380.61,7.34,12.71,628.33-385.11,638-368.35,7.3,12.65-628.23,349.36-619.82,363.93,6.9,11.94,618.09-378.99,627.67-362.39,7.74,13.4-638.37,350.15-627.94,368.21,6.52,11.29,606.16-369.98,614.83-354.97,8.93,15.48-631.88,345.88-621.11,364.53,7.28,12.6,603.57-365.74,611.05-352.79,8.02,13.89-607.27,334.27-597.63,350.96,9.08,15.72,582.04-357.12,591.17-341.31,7.86,13.61-603.42,334.21-594.95,348.88,8.01,13.88,594.26-361.67,602.3-347.74,7.55,13.08-594.45,333.49-587.53,345.48,8.05,13.95,568.98-349.23,577.96-333.68,7.24,12.53-583.69,319.4-573.73,336.66,7.57,13.11,568.28-343.66,575.02-331.99,9.47,16.4-595.46,329.84-587.11,344.31,7.46,12.93,583.2-353.34,590.4-340.87,8.12,14.07-583.35,326.3-576.19,338.69,8.03,13.92,567.01-345.89,575.03-331.99,7.78,13.47-573.81,319.77-566.43,332.55,7.4,12.82,575.87-351.54,584.12-337.24,9.18,15.91-597.61,329.52-588.39,345.48,8.46,14.65,579.58-353.98,587.96-339.46,8.59,14.88-590.41,327.64-582.16,341.92,8.81,15.25,575.38-346.99,581.79-335.9,7.95,13.78-575.96,317.23-566.72,333.22,6.33,10.96,578.14-354.66,587.18-339.01,8.07,13.97-602.27,333.59-593.86,348.15,8.26,14.31,589.37-354.65,595.6-343.87,9.94,17.22-585.66,327.27-578.25,340.1,6.78,11.74,574.51-346.51,580.92-335.4,7.24,12.54-590.34,328.57-582.77,341.68,7.75,13.42,569.17-346.01,576.71-332.96,9.11,15.77-578.35,318.65-569.45,334.07,7.92,13.72,571.7-347.75,579.35-334.49,8.98,15.56-574.38,321.26-567.37,333.4,6.69,11.58,567.16-341.5,573.25-330.96,7.18,12.44-558.93,311-551.42,324.01,7.87,13.63,553.17-338.67,561.52-324.2,7.22,12.51-570.04,314.63-561.16,330.01,7.29,12.63,553.95-339.38,562.42-324.71,7.4,12.82-543.96,302.81-536.83,315.17,8.09,14.02,527.76-320.21,534.48-308.58,7.2,12.47-529.35,295.49-522.49,307.38,7.99,13.84,516.87-313.98,523.61-302.3,7.01,12.15-514.26,284.55-506.51,297.99,6.3,10.91,503.63-306.83,510.58-294.78,6.53,11.32-490.53,269.17-482.19,283.6,5.63,9.76,479.4-292.35,486.14-280.68,5.89,10.21-485.28,270.97-479.01,281.84,5.24,9.08,466.41-284.54,473.01-273.1,6.78,11.75-462.07,260.25-456.56,269.79,5.44,9.41,458.3-276.91,463.63-267.68,5.83,10.09-449.67,249.86-443.18,261.09,6.19,10.71,446.68-273.17,453.3-261.71,5.41,9.38-444.68,245.95-437.39,258.56,4.84,8.39,422.29-256.09,427.61-246.88,5.19,8.99-397.67,221.44-391.42,232.26,5.92,10.25,388.37-233.48,392.38-226.54,6.5,11.26-389.37,217.88-384.06,227.09s390.01-237.6,395.39-228.28c5.58,9.67-383.66,214.1-378.2,223.56,4.52,7.84,370.78-224.63,375.35-216.71,5.32,9.21-366.72,204.16-361.05,213.99,4.81,8.34,354.68-216.47,359.74-207.7,4.18,7.24-345.7,194.23-340.71,202.87,4.41,7.63,345.62-207.19,348.93-201.46,5.15,8.92-336.38,188.81-331.74,196.84,4.33,7.5,318.87-190.97,321.85-185.82,4.06,7.03-296.87,168.03-292.96,174.79,3.06,5.3,300.29-179.84,303.09-174.99,4,6.93-292.81,164.27-288.17,172.31,3.46,5.99,278.22-169.09,281.88-162.74,4.1,7.11-267.24,150.49-262.97,157.88,2.68,4.64,267.4-159.82,269.76-155.74,3.12,5.4-247.81,140.41-244.05,146.91,3.02,5.23,224.11-134.71,226.41-130.72,2.77,4.81-208.21,118.16-204.77,124.12,1.86,3.23,206.17-124.96,208.74-120.51,2.48,4.29-198.07,112.86-194.8,118.52,1.57,2.71,185.46-111.91,187.56-108.29,2.01,3.48-172.79,100.11-170.66,103.81,1.39,2.4,165.68-99.94,167.54-96.73,2.08,3.6-150.7,86.84-148.26,91.05,1.36,2.35,153.52-91.41,154.72-89.33,2.41,4.17-143.03,84.65-141.21,87.79.76,1.32,130.61-77.19,131.38-75.85"/>
  </g>
</svg>