<?xml version="1.0" encoding="UTF-8"?>
<svg id="Layer_2" data-name="Layer 2" xmlns="http://www.w3.org/2000/svg" viewBox="0 0 2325.5 761.73">
  <defs>
    <style>
      .cls-1 {
        fill: none;
        stroke: #fca9b3;
        stroke-linecap: round;
        stroke-linejoin: round;
        stroke-width: 10px;
      }
    </style>
  </defs>
  <g id="Layer_1-2" data-name="Layer 1">
    <path class="cls-1" d="M41.95,176.21c1.37,2.37,34.65-23.81,36.29-20.95,1.75,3.03-46.76,30.21-45.84,31.8,1.72,2.97,58.65-36.51,59.8-34.52,1.86,3.22-67.13,43.99-67.13,43.99,2.76,4.78,77.45-48.19,78.96-45.58l-85.08,54.46,95.91-55.38L14.49,213.95l110.08-63.55c.23.4-113.06,71.12-113.06,71.12,0,0,120.79-70.6,121.16-69.95.94,1.64-123.35,77.36-123.35,77.36,0,0,129.7-77.62,130.89-75.57,0,0-134.25,77.34-131.82,81.54,2.47,4.28,132.86-89.76,138.51-79.97L7.56,240.92s145.32-86.69,146.53-84.6c5.35,9.27-147.43,91.3-147.43,91.3,0,0,152.93-94.16,155.47-89.76,4.8,8.31-156.3,95.93-156.3,95.93l163.73-94.53c3.4,5.89-164.56,100.74-164.56,100.74,0,0,167.56-107.17,172.07-99.35,1.47,2.54-171.94,105.13-171.94,105.13,3.25,5.63,179.67-103.73,179.67-103.73L5.55,271.34s181.89-116.7,186.95-107.94c4.66,8.06-186.27,113.48-186.27,113.48,6.01,10.41,194.22-112.13,194.22-112.13,4.86,8.42-199.54,106.73-193.29,117.57l201.36-116.26L8.36,287.69c3.92,6.79,208.52-120.39,208.52-120.39L9.6,292.24l214.91-124.08c8.05,13.94-213.46,128.62-213.46,128.62,0,0,215.12-138.58,221.35-127.8L12.62,301.07c5.08,8.79,227.49-131.34,227.49-131.34.33.57-230.48,127.47-225.56,136,0,0,229.34-143.69,234.22-135.23,8.49,14.71-239.66,126.61-232.29,139.37,6.43,11.13,240.29-138.73,240.29-138.73,1.43,2.48-237.85,138.34-235.83,141.85,0,0,154.69-91.28,155.54-89.8,1.6,2.76-126.56,72.96-123.98,77.42l53.53-30.91-81.45,52.95c10.45,18.1,258.6-151.32,259.47-149.81,5.96,10.33-256.35,153.85-256.35,153.85.64,1.1,261.48-160.8,265.74-153.43,1.79,3.1-94.1,55.52-92.12,58.94,0,0,7.88-22.24,15.54-8.97,2.79,4.83-190.45,98.58-183.15,111.23l278.15-160.59c10.97,18.99-275.22,164.38-275.22,164.38,11.19,19.38,276.04-178.65,284.39-164.19,0,0-281.68,166.53-280.67,168.28,2.94,5.08,288.64-172.66,291.24-168.15L44.19,345.8l297.13-171.55-237.27,142.86,57.09-32.96-108.15,68.53c6.16,10.68,304.93-186.39,309.41-178.64l-85.7,55.27c4.82,8.35,22.91-39.89,34.46-19.89l-191.53,116.65c5.8,10.05.88-15.26,7.27-4.19,0,0-60.53,37.42-59.31,39.54.92,1.6,326.17-188.31,326.17-188.31,2.42,4.19-334.1,168.29-321.19,190.64,11.84,20.51,330.99-191.1,330.99-191.1L78.08,366.01c5.87,10.17,325.5-211.88,335.87-193.91L83.79,368.01l340.42-196.54L91.42,369.95c2.38,4.13,345.29-199.35,345.29-199.35L99.04,371.42c13.14,22.77,349.41-201.73,349.41-201.73L106.15,372.75s351.84-206.64,353.36-204.01L113.03,374.02s348.95-220.74,357.3-206.28c2.23,3.86-352.97,201.07-349.1,207.77,0,0,357.69-216.76,362.13-209.07,2.64,4.58-364.61,193.99-355.21,210.29,2.87,4.97,355.16-230.8,366.31-211.49,0,0-366.31,200.14-359.04,212.74l370.82-214.09-84.95,55s43.77-26.77,44.42-25.65c6.36,11.02-313.91,187.44-313.91,187.44l382.15-220.63-373.94,221.93c13.24,22.94,388.23-224.15,388.23-224.15l-380.45,225.33c12.07,20.9,385.54-242.45,394.14-227.56l-385.94,228.77s395.37-240.15,400.51-231.24l-393.2,232.27,406.3-234.58s-407.66,220.1-398.71,235.62c15.85,27.46,412.42-238.11,412.42-238.11,12.53,21.7-411.14,228.27-404.89,239.11,0,0,404.51-266.11,418.61-241.68l-410.2,242.74c12.71,22.02,421.17-253.42,425.61-245.73,0,0-428.92,225.65-416.72,246.79,6.08,10.53,426.54-261.59,433.17-250.09,3.53,6.12-231.83,139.84-231.83,139.84,0,0,77.48-55.42,82.1-47.4.85,1.48-271.99,150.75-266.96,159.46,0,0,443.17-265.83,447.48-258.35,1.61,2.79-343.67,204.15-343.67,204.15,0,0,268.82-164.04,272.65-157.41,2.63,4.55-358.63,213.33-358.63,213.33L713.32,125.61c10.88,18.84-437.84,258.71-437.84,258.71,13.67,23.67,331.37-210.64,339.74-196.15l-347.27,206.37c13.79,23.89,471.33-290.54,479.31-276.73,7.42,12.85-469.96,277.38-469.96,277.38,0,0,469.18-313.61,487.68-281.56,0,0-376.59,205.09-368.87,218.45,6.87,11.9,46.43-41.88,52.95-30.57,1.21,2.09-39.16,27.98-39.16,27.98l209.35-120.87-143.62,88.67c15.03,26.02,202.35-116.83,202.35-116.83,13.68,23.7-367.87,212.32-365.46,216.49,0,0,501.12-329.65,518.58-299.4,0,0-519.03,283.9-509.93,299.66L847.05,93.59,331.54,397.41c10.69,18.52,534.38-308.53,534.38-308.53,0,0-446.32,256.4-443.34,261.56,15.84,27.43,110.67-73.69,114.91-66.34,1.43,2.48,129.11-68.5,129.11-68.5,16.94,29.34,137.09-116.74,153.37-88.55,4.39,7.6-465.06,259-458.5,270.36L918.73,75.69c13.02,22.55-517.12,304.11-517.12,304.11,17.95,31.09,198.18-163.59,219.47-126.71,2.36,4.08-239.84,143.57-239.65,143.92,0,0,560.72-347.52,571.02-329.68,19.23,33.3-564.5,321.25-559.85,329.31,21.02,36.41,564.82-357,578.2-333.82l-154.95,95.53s122.25-91.5,131.31-75.81c4.8,8.31-478.05,281.43-478.05,281.43,5.56,9.64,403.69-233.07,403.69-233.07,11.98,20.75-447.63,264.11-447.63,264.11,4.32,7.47,596.6-344.45,596.6-344.45L437.22,394.19,1039.67,46.37s-289.52,169.01-287.77,172.03c0,0-10.95-22.94,1.72-.99.05.09,37.58-18.13,38.79-16.05,6.88,11.92,181.46-130.73,192.7-111.26,3.79,6.57-214.33,114.54-207.66,126.09,12.89,22.33,11.51-6.65,11.51-6.65l-259.55,155.89c13.19,22.85,335.07-200.68,338.2-195.26.32.55-65.88,43.56-65.88,43.56,23.19,40.16-6.51-54.82,18.85-10.88,8.92,15.45-236.59,142.63-236.59,142.63,4.22,7.31,152.45-88.02,152.45-88.02.11.19,90.89-46.68,90.89-46.68l24.63-14.22s266.8-162.33,272.72-152.07c22.66,39.25,37.76-21.8,37.76-21.8,0,0-322.53,164.71-310.82,184.98.91,1.58,9.95-48.4,28.42-16.41l-14.68,14.53,29.86-17.24s43.84-22.88,45.05-20.79c12.04,20.86,212.83-122.88,212.83-122.88,6.19,10.73-262.46,155.82-261.7,157.14l31.41-18.14c.6,1.03-18.95,16.25-18.95,16.25,0,0,18.85-40.35,31.61-18.25,0,0-217.67,117.33-211.64,127.77L1236.27,13.8s-405.53,233.94-403.19,237.99c13.62,23.59,31.05-42.01,41.47-23.95l68.31-34.04c13.56,23.48,32.4-18.71,32.4-18.71.39.68-17.71,16.13-17.71,16.13,0,0,27.51-17.08,28.03-16.18.2.35-12.91,13.2-12.8,13.4,1.4,2.43,8.96-34.28,21.56-12.45.69,1.19-107.81,63.2-105.57,67.09,0,0,307.92-230.18,330.61-190.88,10.8,18.7-462.98,272.53-462.98,272.53l112.14-64.75c5.17,8.96-153.3,94.49-153.3,94.49C739.01,395.62,1320.58,5,1320.58,5c12.58,21.79-589.61,346.22-589.61,346.22,0,0,584.26-363.41,595.55-343.84,6.6,11.43-487.02,286.42-487.02,286.42,17.75,30.74,469.32-280.37,473.39-273.31l-527.2,310.42s114.74-76.7,119.27-68.86c3.01,5.22-131.97,70.22-126.94,78.93,18.48,32.02,565.1-326.26,565.1-326.26,10.76,18.64-548.99,322.6-548.99,322.6,8.5,14.71,535.65-351.67,554.02-319.86,0,0-544.45,304.39-537.7,316.09,0,0,541.3-314.96,542.36-313.13,0,0-537.24,291.58-526.89,309.49L1356.87,23.37l-513.16,302.29c6.81,11.79,501.64-326.1,517.44-298.74,11.78,20.4-512.96,274.48-501.22,294.82,8.79,15.22,488.21-320.23,504.82-291.46l-488.44,287.46c.74,1.28,491.77-283.92,491.77-283.92.78,1.35-484.67,263.63-475.3,279.87,12.75,22.08,478.21-276.1,478.21-276.1,13.04,22.59-476.11,245.58-460.96,271.82L1374.04,41.53c13.54,23.45-464.31,243.31-451.15,266.1.39.67,454.16-262.21,454.16-262.21,0,0-356.51,199.23-351.27,208.3,6.26,10.85,206.95-119.48,206.95-119.48,5.2,9.01-385.66,201.41-374.15,221.35,11.29,19.56,518.78-312.17,524.26-302.68l-548.86,322.69L1385.75,57.04l-570.53,334.85L1387.78,61.32l-589.59,346.32c7.94,13.75,591.82-341.68,591.82-341.68l-308.57,183.95c12.08,20.93,147.39-85.1,147.39-85.1,0,0-81.07,45.16-77.98,50.51,11.65,20.18,211.13-155.97,225.88-130.41,3.7,6.41-309.34,184.74-309.34,184.74,0,0,14.9-33.41,25.64-14.8,1.24,2.14-37.41,26.84-37.41,26.84,1.51,2.62,233.07-134.56,233.07-134.56,2.5,4.33-242.24,125.06-233.32,140.51l40.36-23.3-265.31,158.41c25.87,44.81,7.78-4.49,7.78-4.49,4.12,7.14,210.39-115.34,210.39-115.34,14.72,25.5,48.57-28.04,48.57-28.04,1.83,3.16-52.7,32.17-51.16,34.84,0,0,50.41-32.36,51.82-29.92.11.18-5.79,9.39-5.79,9.39,0,0,46.2-56.01,58.91-34.01l-108.65,68.15s40.17-61.96,56.96-32.89c0,0-206.99,121.91-205.34,124.76,11.59,20.07,148.1-136.15,170.03-98.16.07.12,31.41-15.09,32.56-13.09,10.34,17.92,270.23-156.02,270.23-156.02,18.66,32.31-592.27,343.3-590.58,346.22l222.6-128.52s39.42-19.98,40.47-18.15l58.93-34.02c2.17,3.75-61.2,35.97-59.22,39.4l58.48-33.77-57.77,39.7c16.99,29.42,32.49-75.08,56.88-32.84,0,0-57.32,36.6-56.09,38.72,0,0,45.77-47.68,54.97-31.74.24.42-135.79,84.55-135.79,84.55,18.27,31.64,312-195.15,318.5-183.89,10.98,19.01-347.46,183.98-337.53,201.17,20.59,35.67,57.02-32.92,57.02-32.92l107.39-55.95c24.01,41.59,77.57-44.79,77.57-44.79,6.1,10.56-431.93,225.06-418.68,248.02,0,0,147.3-122.93,163.71-94.52,0,0,62.7-35.13,64.86-31.4l143.98-83.13c2.02,3.5-91.13,54.23-89.14,57.68l26.25-15.15c.04.07-24.85,18.89-24.37,19.72,0,0,18.05-11.19,18.38-10.61,5.47,9.47-290.49,151.55-280.79,168.35,16.3,28.23,94.26-69.6,100.83-58.21l-136.84,85.11c9.26,16.04,605.09-349.35,605.09-349.35,3.9,6.76-259.34,154.71-258.78,155.68,18.07,31.3,195.09-163.64,217.17-125.38,12.4,21.47-565.66,315.56-558.36,328.2,21.42,37.1,580.91-340.93,583.31-336.77,0,0-596.2,313.53-580.64,340.48,0,0,571.52-332.41,572.58-330.58l-273.38,164.15s130.1-93.92,138.24-79.82c17.29,29.94-430.83,254.57-430.83,254.57,13.55,23.48,544.68-314.47,544.68-314.47,15.73,27.24-551.1,302.06-541.65,318.43l529.39-305.64c5.74,9.93-201.44,105.01-194.26,117.46l175.07-101.08s-506,294.08-504.58,296.54c0,0,483.26-306.25,495.06-285.82l-350.53,207.75s183.86-127.81,193.24-111.56c6.27,10.86-310.14,184.27-310.14,184.27l236.12-136.32c2.6,4.5-258.24,143.76-253.42,152.11,10.81,18.73,409.91-260.15,420.08-242.53,12.39,21.46-431.15,220.07-416.2,245.95,1.41,2.44,436.37-251.94,436.37-251.94l-327.48,194.52s310.3-188.09,314.17-181.39c9.3,16.11-280.4,157.1-275.9,164.89l142.34-82.18-277.43,165.92c9.75,16.88,481.44-277.96,481.44-277.96,0,0-486.99,264.18-477.22,281.1l495.36-286s-504.71,265.36-491.03,289.06c0,0,505.88-298.73,508.76-293.73,0,0-296.76,167.3-292.59,174.52l296.64-171.27c11.12,19.26-503.28,296.6-503.28,296.6l535.25-309.03c1.81,3.13-280.33,167.49-280.33,167.49,11.59,20.08,34.91-59.03,51.74-29.87,3.34,5.78-297.06,176.73-297.06,176.73,0,0,544.97-344.94,558.09-322.21l-552.67,324.88c15.94,27.61,569.53-328.82,569.53-328.82,0,0-574.75,312.8-564.05,331.34,15.83,27.41,580.32-335.05,580.32-335.05,0,0-256.47,147.74-253.88,152.21,1.79,3.11,6.91-3.99,6.91-3.99l251.58-139.66c11.59,20.07,3.58-2.07,3.58-2.07,0,0-401.68,202.27-386.21,229.06,0,0,273.23-205.57,293.94-169.71,0,0-175.16,94.24-169.53,104l15.16-8.75s-10.03,10.1-9.58,10.87l23.78-13.73c4.33,7.5-156.38,84.76-151.38,93.42,24.89,43.1,164.21-116.24,173.49-100.17l84.62-43.41s95.63-72.17,102.97-59.45c0,0-338.33,200.88-338.04,201.38l106.7-61.6c1.05,1.81-72.12,47.91-72.12,47.91,0,0,116.88-80.64,122.58-70.77.58,1.01,76.35-42.7,78.47-39.03,15.36,26.6,204.41-130.69,209.9-121.18,0,0-305.61,158.76-295.32,176.6,6.16,10.67,70.31-40.6,70.31-40.6,0,0-284.54,155.05-278.22,166.01,18.7,32.38,563.81-326.39,564.19-325.73,8.13,14.08-340.6,201.99-340.6,201.99l80.59-46.53-72.27,47.25c16.98,29.41,85.42-49.32,85.42-49.32l-76.11,49.8s86.07-58.55,89.91-51.91c0,0,84.41-44.95,85.16-43.65,24.68,42.75,183.87-106.16,183.87-106.16,0,0-351.36,177.51-337.79,201,26.44,45.8,88.21-67.64,95.44-55.1.3.52-141.33,87-141.33,87l272.68-157.43s-206.57,115.08-202.06,122.89c15.58,26.99,97.21-56.12,97.21-56.12,1.11,1.93-83.52,52.63-82.74,53.99,25.61,44.35,96.77-55.87,96.77-55.87,2.7,4.67-196,102.23-188.93,114.47,0,0,129.74-86.93,134.95-77.91,0,0-13.71,12.29-13.12,13.3,27.39,47.44,92.08-53.16,92.08-53.16l-71.18,47.34,85.08-49.12c1.41,2.45,105.96-55.55,105.96-55.55,21.22,36.76,54.48-31.45,54.48-31.45,3.23,5.59-107.3,60.34-104.25,65.63l242.98-140.28s-338.11,198.1-336.65,200.63c0,0,276-219.25,301.94-174.32.39.68-477.81,281.78-477.81,281.78,0,0-11.92-37.88,7.46-4.31l248.46-137.11c5.66,9.8,20.15-13.82,21.1-12.18l2.04,4.6c21.45,37.15,7.85-4.53,7.85-4.53,0,0-297.76,151.72-286.27,171.63,21.1,36.55,598.68-345.65,598.68-345.65l-577.2,339,585.33-337.94-562.72,331.11c20.3,35.16,571.29-329.83,571.29-329.83,10.51,18.2-558.27,310.48-550.61,323.75,4.45,7.7,545.44-345.3,558.6-322.51,18.46,31.97-540.2,317.21-540.2,317.21l546.95-315.78s-73.9,47.22-73.14,48.52c0,0,43.29-49.45,53.88-31.11l-487.44,287.22s506.91-322.89,519.99-300.22c2.49,4.31-507.87,283.73-501.23,295.22,19.1,33.08,507.1-292.78,507.1-292.78,15.32,26.54-487.29,287.63-487.29,287.63,0,0,476.91-313.2,493.3-284.81,16.75,29.02-479.22,273-475.07,280.19,4.98,8.62,480.44-277.38,480.44-277.38,3.35,5.8-338.53,200.8-338.53,200.8l251.09-144.97s-371.89,188.87-357.96,213.01c0,0,442.49-285.1,455.32-262.88l-56.07,38.57,24.22-13.99s-388.01,225.46-386.34,228.36c0,0,177.83-129.62,189.5-109.41l-176.67,107.88,418.43-241.58c11.68,20.24-401.08,237.8-401.08,237.8,4.01,6.95,405.28-233.99,405.28-233.99,4.44,7.69-390.06,228.21-388.74,230.48,5.72,9.9,380.9-246.82,392.56-226.64,3.14,5.44-377.97,223.62-377.97,223.62,0,0,371.35-237.09,381.17-220.07l-131.98,81.89c5.65,9.78,112.91-65.19,112.91-65.19l-135.86,83.85s55.13-34.24,56.17-32.43c3.78,6.56-237.84,143.18-237.84,143.18,0,0,332.36-223.44,346.03-199.78,1.65,2.86-330.6,196.9-330.6,196.9l333.73-192.68c12.33,21.36-322.59,191.73-322.59,191.73l325.3-187.81c11.28,19.54-344.55,204.92-344.55,204.92l347.26-200.49s-294.92,163.87-289.83,172.68l221.29-127.76c.94,1.63-24,19.58-24,19.58,11.22,19.43,51.51-32.78,52.83-30.5l-330.93,196.73c10.38,17.98,376.78-217.53,376.78-217.53l-380.94,226.14c6.31,10.93,383.03-221.14,383.03-221.14,0,0-387.71,226.22-386.09,229.03,15.14,26.23,380.17-237.77,388.09-224.06,5.64,9.77-402.11,210.5-390.24,231.04,8.69,15.05,382.37-243.1,392.05-226.35,3.2,5.54-334.03,197.85-333.85,198.17,14.27,24.71,105.29-94.91,120.06-69.32,6.83,11.84-180.93,110.13-180.93,110.13,0,0,383.67-252.75,397.2-229.32,3.82,6.61-397.92,235.06-397.92,235.06l398.76-230.22c.57.99-399.19,236.08-399.19,236.08,0,0,394.43-240.63,400.02-230.95l-177.68,108.04c4.09,7.09,10.83-14.06,14.21-8.21,0,0-243.7,130.23-236.53,142.65,15.52,26.88,387-256.78,401.44-231.77,1.1,1.91-401.07,236.82-401.07,236.82,16.34,28.31,401.54-231.83,401.54-231.83,10.79,18.69-354.3,191.17-345.81,205.87,0,0,103.59-73.67,109.59-63.27l-163.8,100.33,399.78-230.81s-407.65,220.26-398.85,235.5c6.86,11.88,391.32-241.41,398.03-229.8,0,0-249.51,142.58-246.34,148.07l230.91-133.32c7.5,12.99-380.1,224.74-380.1,224.74,3.07,5.31,380.39-250.8,393.89-227.41l-392.3,232.41c8.56,14.83,389.4-229.7,391.51-226.04l-389.64,231.2c7.17,12.43,376.78-244.17,388.31-224.19,6.28,10.87-386.43,228.81-386.43,228.81l384.18-221.8c3.83,6.64-370.31,214.47-367.99,218.49,12.2,21.13,20.43-18.89,23.5-13.57,0,0-35.58,25.64-35.06,26.55,0,0,364.77-228.67,372.6-215.12,10.16,17.6-299.27,178.54-299.27,178.54l192.22-110.98c6.37,11.04-260.31,156.54-260.31,156.54,0,0,372.1-240.1,383.04-221.15,3.25,5.64-327.96,194.6-327.96,194.6,11.41,19.77,24.03-44.95,37.49-21.64.96,1.67,36.52-14.9,36.52-14.9,13.78,23.86,188.11-108.6,188.11-108.6,5.25,9.1-311.49,178.6-308.54,183.71l431.73-249.26c8.39,14.53-231.93,139.38-231.93,139.38,17.08,29.58,194-112,194-112,2.85,4.94-363.09,215.54-363.09,215.54l267.82-154.63-288.13,172.36c15.59,27.01,482.53-278.59,482.53-278.59,0,0-379.71,201.82-369.6,219.32l228.9-132.15s-37.67,26.48-37.19,27.31l67.16-38.78,117.76-62.44c11.06,19.15,25.18-14.54,25.18-14.54,13.12,22.72-451.17,247.05-442.85,261.47l330.88-191.04s-390.37,202.43-378.09,223.7c7.51,13,424.74-245.23,424.74-245.23,8.14,14.1-424.24,250.43-424.24,250.43,11.57,20.04,559.06-354.03,572.6-330.59,15.35,26.59-567.98,333.29-567.98,333.29l577.71-333.54-378.94,224.19c6.57,11.38,22.4-12.93,22.4-12.93,0,0,55.48-31.36,57.69-27.53l120.62-69.64c11.56,20.03-383.94,227.12-383.94,227.12,4.89,8.47,585.91-338.28,585.91-338.28.92,1.6-580.36,340.55-580.36,340.55,0,0,562.84-379.84,586.6-338.68,7.46,12.92-522.22,271.74-506.96,298.17,1.12,1.93,31.68-18.29,31.68-18.29,1.52,2.63,332.95-186.8,332.95-186.8,21.71,37.61,111.51-108.53,130.63-75.42,12.65,21.92-434.1,225.57-420.92,248.39.23.39,163.51-94.4,163.51-94.4,5.89,10.2-292.19,174.17-292.19,174.17,0,0,575.93-349.01,583.07-336.64l-575.04,337.78s566.35-359.54,580.45-335.12l-278.56,167.05c20.95,36.28,121.31-78.65,125.04-72.19,0,0-410.72,240.35-409.74,242.04l572.52-330.55-563.17,331.17s559.66-341.34,567.55-327.68c.17.29-42.97,30.31-42.97,30.31l39.8-22.98-428.66,253.24c16.18,28.03,352.05-239.05,367.54-212.2.17.29,17.75-5.71,18.33-4.7,0,0,22.36-34.93,31.89-18.41,20.16,34.92-502.69,296.57-502.69,296.57l531.52-306.87c4.14,7.17-516.35,303.7-516.35,303.7,0,0,518.85-300.74,519.36-299.85,18.3,31.7-511.82,280.79-502.98,296.1,4.98,8.62,498.41-304.98,505.87-292.06l-488.75,288.01s476.4-309.99,491.53-283.78c14.49,25.1-480.07,270.4-474.61,279.85,0,0,459.24-306.06,476.96-275.37l-458.94,271.14s447.85-289.02,461.04-266.18l-443.18,261.92c.3.51,431.66-280.55,445.23-257.05,0,0-434.34,243.47-428.79,253.07,15.21,26.35,430.66-248.64,430.66-248.64,0,0-423.07,225.19-412.15,244.1,0,0,403.82-257.19,414.23-239.16l-395.52,234.49c12.47,21.59,394.86-234.32,397.6-229.56,1.97,3.42-263.66,157.45-263.66,157.45,14.37,24.9,221.18-163.2,236.55-136.57,3.33,5.76-348.06,177.84-335.42,199.73,4.24,7.34,365.22-210.86,365.22-210.86l-347.57,206.26s337.23-220.66,348.47-201.19c0,0-252.57,139.55-247.3,148.67l85.54-49.38-24.05,20.09s125.57-73.27,125.9-72.69c0,0-232.76,132.93-229.47,138.64l290.14-167.51c4.76,8.25-276.41,156.25-272.69,162.69,2.44,4.23,272.15-157.13,272.15-157.13l-253.62,151.94c8.18,14.16,252.6-145.84,252.6-145.84l-232.92,140.25s225.37-145.97,232.24-134.08c1.79,3.09-210.47,127.8-210.47,127.8,1.99,3.45,209.53-120.97,209.53-120.97.63,1.09-190.37,110.65-188.05,114.68,0,0,186.18-108.18,186.48-107.66,1.77,3.06-63.35,42.59-63.35,42.59,3.01,5.21,50.82-33.11,52.45-30.28,1.32,2.28-131.35,82.08-131.35,82.08,0,0,135.3-80.28,136.24-78.66l-114.27,71.91c3.35,5.8,109.29-63.1,109.29-63.1,2.71,4.7-86.22,55.9-86.22,55.9,1.74,3.01,80.1-46.25,80.1-46.25l-56.16,38.67,44.49-25.69"/>
  </g>
</svg>