<?xml version="1.0" encoding="UTF-8"?>
<svg id="Layer_2" data-name="Layer 2" xmlns="http://www.w3.org/2000/svg" viewBox="0 0 1077.74 421.04">
  <defs>
    <style>
      .cls-1 {
        fill: none;
        stroke: #fca9b3;
        stroke-linecap: round;
        stroke-linejoin: round;
        stroke-width: 11px;
      }

      .cls-2 {
        fill: #a36532;
      }
    </style>
  </defs>
  <g id="Layer_1-2" data-name="Layer 1">
    <g>
      <polyline class="cls-1" points="421.47 83.08 505.81 34.39 425.43 96.96 572.62 11.98 347.24 158.27 592.83 16.48 351.44 172.01 581.92 38.94 331.87 199.47 630.28 27.18 341.63 210.01 623.77 47.11 320.92 238.13 624.24 63 288.44 273.05 719.43 24.21 315.72 273.46 720.1 39.99 273.19 314.18 775.71 24.05 300.05 314.84 825.65 11.38 285.69 339.3 840.3 19.09 312.82 339.8 906.86 -3.17 303.74 361.21 928.03 .77 360.84 344.4 905.94 29.69 336.32 374.73 934.69 29.26 349.28 383.41 933.34 46.2 360.03 393.37 1005.84 20.51 378.25 399.02 990.79 45.37 472.27 360.9 1021.06 44.06 481.87 371.52 1018.98 61.43 463.44 398.33 1011.89 81.68 497.43 394.87 1057.36 71.59 501.12 408.91 1025.96 105.89 559.46 391.39 1058.63 103.19 534.7 421.85 1073.96 110.51 678.19 355.17 1061.83 133.68 662.87 380.18 1035.99 164.76 681.91 385.36 1061.2 166.37 691.47 396 1016.63 208.27 691.85 411.95 929 275.03 743.83 398.11 894.79 310.95"/>
      <g>
        <g>
          <g>
            <g>
              <g>
                <path class="cls-2" d="M189.13,182.57l-.43.73c-5.53-2.25-11.05-3.85-16.86-4.47-3.34-.35-6.79-.45-10.12-.17-2.23.17-4.41.69-6.54,1.26-4.34,1.21-8.62,1.73-13.12,2.44-2.31.34-4.66.68-7.27.92l-.48-.7c3.87-6.34,12.36-10.78,19.7-10.99,7.6-.11,15.41.74,22.4,3.63,4.61,1.89,8.91,4.35,12.71,7.34Z"/>
                <path class="cls-2" d="M182.63,194.6c-4.09,3.2-8.9,5.59-13.92,7.05-10.93,3.23-24.52,1.58-32.58-7.05,7.48,4.06,16.09,5.65,24.52,5.11,7.59-.49,14.72-2.65,21.97-5.11Z"/>
              </g>
              <g>
                <path class="cls-2" d="M96.92,182.59l-.48.7c-2.6-.23-4.96-.58-7.27-.92-4.49-.71-8.78-1.23-13.12-2.44-4.6-1.35-9.43-1.64-14.22-1.31h0c-.37.03-.74.06-1.11.09-.07,0-.14.01-.21.02-.06,0-.11,0-.17.01-.18.02-.36.03-.54.06-.06,0-.11,0-.17.02-.17.01-.33.03-.49.06-.03,0-.05,0-.07,0-.25.03-.5.06-.75.09-.39.05-.78.1-1.16.16-.39.06-.77.11-1.16.18-.56.1-1.11.2-1.67.32-.11.02-.22.04-.33.07-.32.07-.65.14-.97.22-.25.06-.51.11-.76.18-.03,0-.05.01-.07.02h0c-3.25.8-6.47,1.89-9.66,3.19l-.43-.73c.82-.64,1.66-1.26,2.52-1.85,7.28-5.03,15.94-8.29,24.89-8.85,2.54-.16,5.12-.36,7.71-.28,1.58.05,3.13.27,4.66.65h0c3.48.85,6.78,2.49,9.67,4.62,2.1,1.59,4.02,3.39,5.37,5.73Z"/>
                <path class="cls-2" d="M95.09,194.6c-8.05,8.62-21.65,10.28-32.58,7.05-5.02-1.46-9.83-3.84-13.92-7.05,7.26,2.46,14.38,4.62,21.97,5.11,8.43.54,17.04-1.05,24.52-5.11Z"/>
              </g>
            </g>
            <g>
              <path class="cls-2" d="M115.62,242.48c-4.25,2.3-10.61,2.29-14.87,0,4.26-2.29,10.61-2.3,14.87,0Z"/>
              <path class="cls-2" d="M130.48,242.48c-4.25,2.3-10.61,2.29-14.87,0,4.26-2.29,10.61-2.3,14.87,0Z"/>
            </g>
          </g>
          <g>
            <path class="cls-2" d="M60.71,178.7c-.07,0-.14.01-.21.02-.06,0-.11,0-.17.01-.18.02-.36.03-.54.06-.06,0-.11,0-.17.02-.17.02-.33.03-.49.06-.03,0-.05,0-.07,0-.25.03-.5.06-.75.09-.39.05-.78.1-1.16.16-.39.06-.77.11-1.16.18-.56.1-1.11.2-1.67.32-.11.02-.22.04-.33.07-.32.07-.65.14-.97.22-.25.06-.51.11-.76.18-.03,0-.05.01-.07.02,3.17-.35,6.39-.84,9.63-1.49-.37.03-.74.06-1.11.09ZM77.22,171.59c-2.59-.08-5.17.11-7.71.28-8.95.56-17.6,3.81-24.89,8.85,2.48-.13,5.01-.32,7.57-.61h0c3.17-.35,6.39-.84,9.63-1.49h0c6.72-1.35,13.51-3.39,20.05-6.38-1.52-.37-3.08-.59-4.66-.65ZM14.66,270.85s.01.03.02.04c.03-.3.06-.6.09-.9-.04.28-.08.57-.11.86ZM60.71,178.7c-.07,0-.14.01-.21.02-.06,0-.11,0-.17.01-.18.02-.36.03-.54.06-.06,0-.11,0-.17.02-.17.02-.33.03-.49.06-.03,0-.05,0-.07,0-.25.03-.5.06-.75.09-.39.05-.78.1-1.16.16-.39.06-.77.11-1.16.18-.56.1-1.11.2-1.67.32-.11.02-.22.04-.33.07-.32.07-.65.14-.97.22-.25.06-.51.11-.76.18-.03,0-.05.01-.07.02,3.17-.35,6.39-.84,9.63-1.49-.37.03-.74.06-1.11.09Z"/>
            <path class="cls-2" d="M231.23,215.09c0,16.23-3.93,31.91-10.35,46.67-1.32-4.1-2.88-8.11-4.69-12-3.34-7.18-7.61-13.92-12.64-19.99-.82-1-1.67-1.98-2.54-2.95-.44-.49-.89-.98-1.34-1.46,2.79,4,5.25,8.19,7.35,12.54,5.18,10.61,8.02,22.21,9.06,33.91-2.81,5.36-5.91,10.59-9.24,15.67-.47-3.32-1.18-6.61-2.17-9.81-2.55-8.48-7.05-16.25-12.82-22.86-.15-.17-.3-.35-.45-.52-.74-.82-1.49-1.63-2.26-2.41,2.94,4.02,5.46,8.31,7.39,12.81,4.4,9.99,5.47,20.94,4.18,31.64-4.5,6.15-9.29,12.04-14.21,17.63-.42-2.32-.87-4.63-1.37-6.92-.31-1.58-.65-3.15-1.02-4.71-.92-3.84-2.04-7.62-3.36-11.3-.4-1.17-.81-2.34-1.24-3.5-1.46-3.82-3.14-7.57-5.25-11.07-.39-.72-.78-1.44-1.19-2.15,5.94,14.86,8.03,30.78,7.11,46.57-4.57,4.86-9.2,9.46-13.78,13.77-.19-1.37-.4-2.74-.63-4.1,0-.02,0-.03,0-.05-.42-2.5-.93-4.98-1.52-7.43-.81-3.38-1.78-6.72-2.91-9.99-2.15-6.28-4.88-12.33-8.13-18.03,5.76,14.4,7.9,29.8,7.2,45.11-4.91,4.41-9.69,8.46-14.19,12.11.25-4.6.25-9.2-.03-13.77-.62-10.15-2.66-20.11-6.03-29.5,1.48,7.04,2.15,14.17,2.11,21.27-.01,2.71-.13,5.42-.34,8.12-.54,6.72-1.68,13.39-3.35,19.93-8.3,6.4-15.08,11.07-19.06,13.71l-4-55.56-3.99,55.42c-4.11-2.74-11.04-7.52-19.48-14.06-1.22-5.07-2.13-10.21-2.68-15.39-.34-3.18-.54-6.37-.59-9.57-.14-7.58.52-15.19,2.09-22.71-4.86,13.31-6.7,27.64-6.13,41.88-4.48-3.64-9.24-7.68-14.13-12.08-.68-15.24,1.47-30.57,7.2-44.91-2.91,5.04-5.35,10.33-7.34,15.8-1.47,4.04-2.7,8.16-3.7,12.35-.89,3.71-1.59,7.47-2.12,11.26-4.76-4.49-9.58-9.29-14.33-14.37-.73-13.99.92-28.07,5.53-41.41.22-.63.44-1.26.68-1.89.31-.83.62-1.66.95-2.48-6.92,11.97-11.17,25.41-13.13,39.18-5.18-5.9-10.2-12.13-14.89-18.66-.07-.64-.12-1.27-.17-1.92-.51-5.73-.14-11.49,1.04-17.08,1.09-3.92,2.39-7.78,3.93-11.54,1.45-3.45,3.13-6.82,5.19-9.97.01-.03.03-.06.05-.08.54-.8,1.11-1.6,1.69-2.37-9.78,9.77-15.41,21.66-17.52,34.49-3.24-5.01-6.26-10.16-8.98-15.46.03-.3.06-.6.09-.9,0-.03,0-.06.01-.1.84-6.63,2.13-13.23,4.01-19.67,1.32-4.22,2.93-8.34,4.88-12.33,2.1-4.34,4.56-8.53,7.35-12.54-.21.22-.42.45-.62.67-.48.51-.96,1.03-1.41,1.55-8.6,9.68-14.85,21.19-18.94,33.46-6.23-14.55-10.04-29.98-10.04-45.95,0-27.48,5.04-53.34,13.92-75.91,3.37-8.57,7.29-16.66,11.7-24.18,4.87,3.28,10.67,6.28,17.22,8.93l1.18.48h0c11.06,4.33,23.78,7.56,37.84,9.59-1.75,1.7-3.55,3.33-5.41,4.91-10.17,8.58-21.87,15.4-34.43,19.85-3.82,1.36-7.72,2.49-11.69,3.39l.04.21c4.24-.79,8.44-1.88,12.55-3.23,4.21-1.38,8.33-3.03,12.35-4.92,10.56-5.08,20.48-11.78,29.07-19.86.17.02.34.05.52.07,9.92,1.3,20.27,1.95,30.75,1.95,3.42,0,6.83-.07,10.17-.21-8.29,10.7-19.85,21.36-33.82,30.52-1.74,1.14-3.5,2.19-5.3,3.16-1.58.85-3.17,1.65-4.79,2.39h0c-1.52-.37-3.08-.59-4.66-.65-2.59-.08-5.17.11-7.71.28-8.95.56-17.6,3.81-24.89,8.85-3.46.17-6.83.21-10.04.14-.22,3.1-.33,6.28-.33,9.55,0,33.72,26.51,80.89,49.26,100.5,18.47,15.92,45.75,15.92,64.22,0,22.76-19.61,49.26-66.77,49.26-100.5,0-12.25-1.57-23.29-4.45-33.09-3.4-11.55-8.63-21.38-15.28-29.45,3.19-.98,6.31-2.06,9.31-3.22h0s.73-.28.73-.28l.48-.19h0c6.83-2.72,12.84-5.81,17.84-9.18,4.41,7.53,8.33,15.62,11.7,24.19,8.87,22.57,13.92,48.42,13.92,75.9Z"/>
            <path class="cls-2" d="M198.22,103.54s-.03.03-.05.04c-1.23,1.06-2.39,2.23-3.45,3.47-.24.28-.47.56-.7.84-2.99,3.72-5.12,7.94-6.34,12.55l-.45,1.71-.45-1.71c-.75-2.85-1.88-5.6-3.35-8.16-3.05-5.32-7.45-9.68-12.77-12.68,3.02-.6,5.31-3.27,5.31-6.47,0-3.64-2.96-6.6-6.6-6.6s-6.6,2.96-6.6,6.6c0,3.15,2.21,5.79,5.17,6.44-3.81,2.14-7.12,4.93-9.85,8.33-.66.83-1.28,1.67-1.82,2.5-1.87,2.81-3.3,5.87-4.25,9.12l-.72,2.64-.45-1.68s-.01-.06-.03-.09l-.61.18.6-.22c-1.72-6.42-5.26-12.14-10.23-16.55-1.79-1.6-3.76-3-5.86-4.18,3.9-.66,6.87-4.04,6.87-8.13,0-4.56-3.7-8.25-8.25-8.25s-8.25,3.7-8.25,8.25c0,4.07,2.96,7.45,6.85,8.12-3.78,2.13-7.07,4.91-9.8,8.3-2.99,3.71-5.12,7.93-6.35,12.55l-.45,1.7-.45-1.71c-1.52-5.75-4.55-11.01-8.75-15.23-.06-.06-.11-.11-.16-.16,1.02-2.15,1.95-4.35,2.79-6.58l-.2-.09c-1.07,2-2.2,3.98-3.36,5.93-1.98-1.85-4.18-3.46-6.55-4.78,3.72-.79,6.52-4.1,6.52-8.06,0-4.56-3.7-8.25-8.25-8.25s-8.25,3.7-8.25,8.25c0,4.2,3.14,7.66,7.2,8.18-3.74,2.12-7,4.88-9.7,8.24-2.95,3.67-5.06,7.82-6.28,12.32-.02.06-.04.13-.07.23l-.45,1.7-.48-1.81c-.04-.16-.08-.32-.13-.47-2.43-8.55-8.19-15.86-15.9-20.23,3.15-.5,5.57-3.22,5.57-6.51,0-3.64-2.96-6.6-6.6-6.6s-6.6,2.96-6.6,6.6c0,3.08,2.11,5.65,4.95,6.38-3.84,2.14-7.2,4.95-9.96,8.39-1.07,1.33-2.03,2.74-2.89,4.21-1.51,2.6-2.67,5.4-3.45,8.33l-.45,1.71-.45-1.71c-1.36-5.14-3.95-9.94-7.49-13.91-.84-.93-1.72-1.82-2.63-2.63-.02-.02-.04-.03-.06-.05,3.16-4.49,6.52-8.72,10.05-12.67,1.55-1.73,3.13-3.4,4.73-5.02,19.09-19.2,42.61-30.52,68.04-30.52s48.64,11.18,67.66,30.15h0c1.74,1.73,3.44,3.53,5.1,5.39.45.5.9,1.01,1.34,1.52.1.11.2.23.29.34.37.42.73.84,1.08,1.27.14.17.29.34.43.52.72.86,1.43,1.74,2.13,2.63.23.28.45.57.68.86.68.87,1.35,1.75,2.01,2.64.34.45.68.91,1.01,1.37,0,0,0,0,0,0,.02.02.03.04.04.06,0,0,.01,0,0,.01.27.38.54.76.81,1.14Z"/>
          </g>
        </g>
        <g>
          <path class="cls-2" d="M329.47,131.46c.23,0,1.41,2.01,3.53,6.04.3.68.29,1.27-.06,1.77-.34.5-.93,1.01-1.77,1.54-.91.61-1.52,1.14-1.82,1.6-.31.46-.27,1.07.11,1.82,1.75,2.96,4.82,8.28,9.23,15.96l.11.11c0,.08.04.11.11.11,1.75,3.12,4.71,8.32,8.89,15.62,5.7,9.96,9.99,17.44,12.88,22.46l32.37-54.49-4.45-6.73,2.28-5.81h31.92l-2.39,6.04-9.69,5.93-42.41,67.49c.15,4.71.15,11.4,0,20.06-.08,5.17-.11,9.12-.11,11.86v23.03c-.08,1.67-.11,4.37-.11,8.09v7.87c0,.76.3,1.39.91,1.88.61.5,1.52,1.01,2.74,1.54,1.14.61,2.03,1.14,2.68,1.6.64.46.97,1.03.97,1.71.23,4.03.23,6.04,0,6.04h-60.3c-.08,0-.13-.82-.17-2.45-.04-1.63.02-2.91.17-3.82.07-.61.42-1.12,1.03-1.54.61-.42,1.52-.85,2.74-1.31,1.14-.46,2.01-.89,2.62-1.31.61-.42.91-1.01.91-1.77v-71.59c-.15-.3-.42-.72-.8-1.25-.91-1.22-1.52-2.13-1.82-2.74-.08-.07-.15-.19-.23-.34,0-.07-.04-.11-.11-.11-.08-.15-.19-.38-.34-.68-.15-.3-.3-.53-.46-.68-15.96-27.89-27.7-48.33-35.23-61.33-.38-.68-.99-1.23-1.82-1.65-.84-.42-1.98-.89-3.42-1.43-1.45-.46-2.59-.87-3.42-1.25-.84-.38-1.52-.91-2.05-1.6-.61-.91-1.37-2.18-2.28-3.82-.91-1.63-1.33-2.45-1.25-2.45h60.31Z"/>
          <path class="cls-2" d="M465.13,163.04c-.23.15-.61.34-1.14.57-1.07.61-2.3,1.1-3.7,1.48-1.41.38-3.52.57-6.33.57-5.09,0-9.63-1.54-13.62-4.62-3.99-3.08-5.98-7.88-5.98-14.42s2.13-12.12,6.38-16.3c4.33-4.26,9.76-6.38,16.3-6.38s11.74,2.05,16.07,6.16c4.33,4.18,6.5,9.23,6.5,15.16,0,6.54-2.74,13.72-8.21,21.55-3.04,4.26-6.38,8.23-10.03,11.91-3.65,3.69-7.98,7.54-13,11.57-1.22.91-2.45,1.08-3.7.51-1.25-.57-2.15-1.52-2.68-2.85-.53-1.33-.42-2.49.34-3.48.91-1.29,2.47-2.7,4.67-4.22,2.2-1.52,4.35-3.19,6.44-5.02,2.09-1.82,4.73-4.52,7.92-8.09.53-.61,1.03-1.18,1.48-1.71.3-.38.84-.95,1.6-1.71.23-.23.46-.46.68-.68Z"/>
          <path class="cls-2" d="M551.54,131.46c.15,0,.15,1.98,0,5.93-.08.76-.42,1.37-1.03,1.82-.61.46-1.52.95-2.74,1.48-1.14.61-2.01,1.14-2.62,1.6-.61.46-.91,1.07-.91,1.82v137.71c0,.76.28,1.37.85,1.82.57.46,1.46.99,2.68,1.6,1.22.53,2.13,1.03,2.74,1.48.61.46.95,1.07,1.03,1.82.15,3.95.15,5.93,0,5.93h-60.42c-.08-3.19-.08-5.24,0-6.16.15-.68.53-1.23,1.14-1.65.61-.42,1.48-.86,2.62-1.31,1.21-.45,2.11-.89,2.68-1.31.57-.42.86-.97.86-1.65.07-4.86.11-14.25.11-28.16v-49.36c0-27.59-.04-48.03-.11-61.33,0-.68-.29-1.23-.86-1.65-.57-.42-1.46-.85-2.68-1.31-1.14-.46-2.01-.89-2.62-1.31-.61-.42-.99-.97-1.14-1.65-.08-.91-.08-2.96,0-6.16h60.42Z"/>
          <path class="cls-2" d="M563.05,210.58c0-12.92,1.94-24.62,5.81-35.11,3.8-10.41,9.31-19.23,16.53-26.45,7.22-7.22,15.88-12.8,25.99-16.76,10.18-3.88,21.66-5.81,34.43-5.81s24.24,1.94,34.43,5.81c10.18,3.95,18.85,9.54,25.99,16.76,7.22,7.22,12.77,16.04,16.64,26.45,3.8,10.41,5.7,22.12,5.7,35.11s-1.9,24.59-5.7,35c-3.88,10.41-9.43,19.23-16.64,26.45-7.14,7.22-15.81,12.81-25.99,16.76-10.18,3.88-21.66,5.81-34.43,5.81s-24.24-1.94-34.43-5.81c-10.11-3.88-18.77-9.46-25.99-16.76-7.22-7.22-12.73-16.03-16.53-26.45-3.88-10.49-5.81-22.15-5.81-35ZM611.38,196.33c0,14.14,1.44,26.83,4.33,38.08,2.81,11.32,6.34,20.9,10.6,28.73,4.25,7.9,9.01,13.95,14.25,18.13,5.17,4.18,10.03,6.27,14.59,6.27,4.79,0,8.82-1.94,12.08-5.81,3.19-3.88,5.74-8.85,7.64-14.93,1.9-6.08,3.27-12.8,4.1-20.18.84-7.37,1.25-14.55,1.25-21.55,0-14.36-1.41-27.17-4.22-38.42-2.81-11.32-6.35-20.9-10.6-28.73-4.33-7.9-9.04-13.95-14.14-18.13-5.09-4.18-10.03-6.27-14.82-6.27s-8.47,1.94-11.74,5.81c-3.19,3.88-5.81,8.85-7.87,14.93-1.98,6.08-3.38,12.84-4.22,20.29-.84,7.52-1.25,14.78-1.25,21.77Z"/>
          <path class="cls-2" d="M800.5,131.35h8.55c10.72,0,20.63,1.43,29.75,4.27,9.12,2.85,16.45,7.26,22,13.22,5.55,5.97,8.28,13.39,8.21,22.29-.08,7.9-2.2,15.22-6.38,21.94-4.18,6.73-13.07,11.61-26.67,14.65,5.93,11.48,13.91,27.13,23.94,46.97,2.43,4.86,4.29,8.63,5.59,11.29l.11.23c1.06,1.67,2.74,4.41,5.02,8.21,2.28,3.72,3.88,6.31,4.79,7.75.46.76,1.14,1.39,2.05,1.88.91.5,2.13,1.01,3.65,1.54,1.52.61,2.74,1.14,3.65,1.6.91.46,1.63,1.07,2.17,1.82,2.51,3.73,3.69,5.59,3.53,5.59h-60.3c-.08,0-.61-.76-1.6-2.28-.99-1.52-1.71-2.7-2.17-3.53-.3-.68-.27-1.23.11-1.65.38-.42.99-.86,1.82-1.31.91-.46,1.54-.89,1.88-1.31.34-.42.28-.97-.17-1.65-.99-1.37-4.58-8.27-10.77-20.69-6.2-12.43-14.46-29.16-24.79-50.22-.53-.99-.91-1.71-1.14-2.17h-.11v71.93c0,.76.28,1.39.85,1.88.57.5,1.46,1.01,2.68,1.54,1.22.61,2.13,1.14,2.74,1.6.61.46.95,1.03,1.03,1.71.15,4.03.15,6.04,0,6.04h-60.42c-.08-3.27-.08-5.36,0-6.27.15-.61.53-1.12,1.14-1.54.61-.42,1.48-.86,2.62-1.31,1.21-.45,2.11-.89,2.68-1.31.57-.42.86-1.01.86-1.77.07-4.71.11-13.91.11-27.59v-49.82c0-27.59-.04-48.03-.11-61.33,0-.68-.29-1.23-.86-1.65-.57-.42-1.46-.89-2.68-1.42-1.14-.46-2.01-.87-2.62-1.25-.61-.38-.99-.91-1.14-1.6-.08-.91-.08-3,0-6.27h60.42ZM796.86,140.7h-.11c-1.22.61-2.11,1.14-2.68,1.6-.57.46-.85,1.07-.85,1.82v57c10.56.91,18.2-1.04,22.91-5.87,4.71-4.83,7.11-13.13,7.18-24.91,0-7.9-.72-14-2.17-18.3-1.45-4.29-3.61-7.31-6.5-9.06-2.89-1.75-6.65-2.62-11.29-2.62-1.82,0-3.99.11-6.5.34Z"/>
          <path class="cls-2" d="M1007.52,247.74h-61.22c-8.97,21.43-13.76,32.87-14.36,34.31-.31.61-.27,1.16.11,1.65.38.5.99,1.12,1.82,1.88,1.6,1.29,2.43,2.36,2.51,3.19.07.91-.76,2.89-2.51,5.93h-32.03c1.14-3.42,2.01-5.47,2.62-6.16.68-.84,2.24-1.67,4.67-2.51,1.44-.53,2.57-1.03,3.36-1.48.8-.46,1.35-1.1,1.65-1.94,5.17-12.31,24.01-57.61,56.54-135.88l-.8-2.05c-.3-.84-.84-1.46-1.6-1.88-.76-.42-1.82-.82-3.19-1.2-2.28-.68-3.76-1.44-4.45-2.28-.76-.91-1.71-3.46-2.85-7.64h53.01l54.95,150.13,9.69,6.73,2.28,6.04h-60.42l-2.28-6.27,5.13-5.93-12.65-34.66ZM953.49,230.18h47.65c-8.97-24.4-16.42-44.72-22.34-60.99-9.8,23.71-18.24,44.04-25.31,60.99Z"/>
        </g>
      </g>
    </g>
  </g>
</svg>