<?xml version="1.0" encoding="UTF-8"?>
<svg id="Layer_2" data-name="Layer 2" xmlns="http://www.w3.org/2000/svg" viewBox="0 0 536 589.43">
  <defs>
    <style>
      .cls-1 {
        fill: #a36532;
      }
    </style>
  </defs>
  <g id="Layer_1-2" data-name="Layer 1">
    <g>
      <g>
        <g>
          <g>
            <path class="cls-1" d="M373.96,182.95l-.62,1.05c-7.98-3.25-15.93-5.55-24.3-6.44-4.82-.51-9.78-.64-14.58-.24-3.21.25-6.36.99-9.43,1.81-6.25,1.75-12.43,2.5-18.91,3.52-3.32.48-6.72.99-10.48,1.32l-.7-1c5.58-9.14,17.81-15.53,28.4-15.85,10.96-.15,22.21,1.07,32.29,5.23,6.65,2.73,12.84,6.26,18.33,10.59Z"/>
            <path class="cls-1" d="M364.6,200.3c-5.89,4.62-12.83,8.06-20.06,10.16-15.75,4.66-35.35,2.27-46.95-10.16,10.79,5.85,23.19,8.14,35.35,7.37,10.95-.71,21.22-3.82,31.67-7.37Z"/>
          </g>
          <g>
            <path class="cls-1" d="M241.05,182.98l-.7,1c-3.75-.34-7.15-.84-10.48-1.32-6.48-1.02-12.66-1.77-18.91-3.52-6.62-1.95-13.6-2.37-20.5-1.89h0c-.53.04-1.07.08-1.6.13-.1.01-.2.02-.31.03-.08,0-.16,0-.24.02-.26.02-.52.05-.78.08-.08,0-.17.01-.24.03-.24.02-.47.04-.71.08-.04,0-.07,0-.1.01-.36.04-.72.08-1.08.13-.56.07-1.12.15-1.68.23-.56.08-1.11.17-1.67.26-.8.14-1.6.29-2.4.46-.16.03-.32.06-.47.1-.47.1-.94.2-1.4.31-.36.08-.73.17-1.09.26-.04,0-.07.02-.1.02h0c-4.68,1.16-9.33,2.73-13.93,4.6l-.62-1.05c1.18-.92,2.39-1.81,3.63-2.67,10.5-7.26,22.98-11.95,35.87-12.75,3.66-.23,7.38-.52,11.11-.4,2.27.07,4.52.39,6.71.93h0c5.02,1.22,9.77,3.59,13.94,6.66,3.03,2.3,5.79,4.89,7.75,8.26Z"/>
            <path class="cls-1" d="M238.42,200.3c-11.61,12.43-31.2,14.82-46.95,10.16-7.24-2.1-14.17-5.54-20.06-10.16,10.46,3.55,20.73,6.66,31.67,7.37,12.15.78,24.56-1.52,35.35-7.37Z"/>
          </g>
        </g>
        <g>
          <path class="cls-1" d="M268,269.31c-6.13,3.31-15.29,3.29-21.43,0,6.13-3.29,15.29-3.31,21.43,0Z"/>
          <path class="cls-1" d="M289.43,269.31c-6.13,3.31-15.29,3.29-21.43,0,6.13-3.29,15.29-3.31,21.43,0Z"/>
        </g>
      </g>
      <g>
        <path class="cls-1" d="M188.86,177.38c-.1.01-.2.02-.31.03-.08,0-.16,0-.24.02-.26.02-.52.05-.78.08-.08,0-.17.01-.24.03-.24.02-.47.05-.71.08-.04,0-.07,0-.1.01-.36.04-.72.08-1.08.13-.56.07-1.12.15-1.68.23-.56.08-1.11.17-1.67.26-.8.14-1.6.29-2.4.46-.16.03-.32.06-.47.1-.47.1-.94.2-1.4.31-.36.08-.73.17-1.09.26-.04,0-.07.02-.1.02,4.57-.51,9.21-1.21,13.87-2.15-.53.04-1.07.08-1.6.13ZM212.65,167.13c-3.73-.12-7.45.17-11.11.4-12.89.81-25.37,5.5-35.87,12.75,3.58-.18,7.22-.47,10.92-.88h0c4.57-.51,9.21-1.21,13.87-2.15h0c9.69-1.94,19.48-4.89,28.89-9.19-2.19-.54-4.44-.86-6.71-.93ZM122.49,310.21s.02.04.03.06c.04-.43.09-.86.13-1.3-.06.41-.11.83-.16,1.24ZM188.86,177.38c-.1.01-.2.02-.31.03-.08,0-.16,0-.24.02-.26.02-.52.05-.78.08-.08,0-.17.01-.24.03-.24.02-.47.05-.71.08-.04,0-.07,0-.1.01-.36.04-.72.08-1.08.13-.56.07-1.12.15-1.68.23-.56.08-1.11.17-1.67.26-.8.14-1.6.29-2.4.46-.16.03-.32.06-.47.1-.47.1-.94.2-1.4.31-.36.08-.73.17-1.09.26-.04,0-.07.02-.1.02,4.57-.51,9.21-1.21,13.87-2.15-.53.04-1.07.08-1.6.13Z"/>
        <path class="cls-1" d="M434.65,229.82c0,23.4-5.67,45.99-14.91,67.27-1.9-5.91-4.15-11.69-6.77-17.29-4.82-10.35-10.97-20.06-18.22-28.82-1.19-1.44-2.41-2.86-3.66-4.25-.64-.71-1.28-1.41-1.93-2.11,4.02,5.77,7.57,11.81,10.6,18.07,7.46,15.29,11.57,32.01,13.07,48.87-4.05,7.73-8.52,15.27-13.32,22.58-.67-4.79-1.7-9.52-3.12-14.14-3.67-12.22-10.16-23.42-18.48-32.95-.21-.25-.43-.5-.66-.75-1.07-1.19-2.15-2.34-3.26-3.48,4.24,5.8,7.87,11.98,10.65,18.46,6.35,14.41,7.88,30.18,6.03,45.61-6.49,8.87-13.39,17.36-20.49,25.42-.6-3.34-1.26-6.67-1.98-9.98-.44-2.27-.93-4.54-1.47-6.78-1.32-5.53-2.95-10.98-4.85-16.29-.57-1.69-1.16-3.37-1.79-5.05-2.1-5.51-4.52-10.92-7.56-15.96-.56-1.04-1.13-2.07-1.71-3.09,8.56,21.42,11.58,44.37,10.26,67.12-6.59,7.01-13.27,13.64-19.86,19.84-.27-1.98-.57-3.94-.91-5.91,0-.02,0-.04-.01-.07-.61-3.6-1.35-7.18-2.2-10.71-1.16-4.87-2.56-9.68-4.19-14.39-3.1-9.06-7.04-17.77-11.72-25.98,8.3,20.76,11.39,42.96,10.37,65.02-7.08,6.36-13.97,12.2-20.45,17.46.36-6.62.36-13.26-.05-19.85-.89-14.63-3.84-28.99-8.69-42.52,2.13,10.15,3.1,20.42,3.04,30.66-.02,3.91-.18,7.81-.5,11.7-.77,9.68-2.42,19.3-4.83,28.72-11.97,9.22-21.73,15.95-27.47,19.76l-5.77-80.09-5.75,79.89c-5.93-3.94-15.91-10.84-28.08-20.26-1.76-7.3-3.07-14.72-3.86-22.18-.48-4.58-.78-9.18-.86-13.79-.21-10.93.75-21.89,3.02-32.74-7,19.18-9.66,39.84-8.84,60.36-6.46-5.25-13.32-11.07-20.36-17.41-.98-21.97,2.12-44.06,10.38-64.73-4.19,7.26-7.71,14.89-10.58,22.78-2.12,5.82-3.89,11.77-5.34,17.8-1.28,5.35-2.3,10.77-3.06,16.23-6.86-6.47-13.81-13.39-20.65-20.72-1.05-20.16,1.33-40.46,7.97-59.69.31-.91.64-1.82.97-2.72.44-1.19.89-2.39,1.37-3.58-9.97,17.26-16.1,36.63-18.93,56.48-7.46-8.5-14.71-17.49-21.46-26.89-.1-.92-.18-1.84-.25-2.76-.73-8.27-.2-16.56,1.49-24.62,1.57-5.65,3.44-11.21,5.67-16.64,2.09-4.98,4.51-9.83,7.49-14.36.02-.04.04-.08.07-.12.78-1.16,1.6-2.3,2.44-3.42-14.09,14.08-22.21,31.21-25.25,49.72-4.67-7.22-9.02-14.65-12.94-22.29.04-.43.09-.86.13-1.3,0-.05.01-.09.02-.14,1.21-9.56,3.07-19.07,5.77-28.35,1.9-6.08,4.22-12.02,7.03-17.77,3.02-6.26,6.58-12.3,10.59-18.07-.31.32-.61.64-.9.97-.7.73-1.38,1.48-2.03,2.23-12.39,13.95-21.4,30.54-27.31,48.23-8.98-20.97-14.47-43.21-14.47-66.24,0-39.61,7.27-76.88,20.06-109.41,4.86-12.35,10.51-24.01,16.87-34.86,7.02,4.72,15.37,9.06,24.82,12.88l1.7.69v-.02c15.94,6.26,34.27,10.92,54.53,13.84-2.52,2.45-5.12,4.81-7.79,7.08-14.66,12.37-31.53,22.19-49.62,28.61-5.5,1.96-11.13,3.59-16.84,4.89l.06.3c6.12-1.14,12.17-2.71,18.09-4.65,6.07-1.99,12.01-4.37,17.8-7.09,15.21-7.32,29.52-16.98,41.9-28.63.25.03.5.07.75.1,14.3,1.87,29.21,2.82,44.32,2.82,4.92,0,9.85-.1,14.66-.3-11.95,15.43-28.61,30.79-48.75,44-2.5,1.64-5.05,3.16-7.64,4.56-2.27,1.23-4.57,2.38-6.9,3.44h0c-2.19-.54-4.44-.86-6.71-.93-3.73-.12-7.45.17-11.11.4-12.89.81-25.37,5.5-35.87,12.75-4.99.25-9.84.3-14.47.2-.32,4.46-.48,9.05-.48,13.76,0,48.61,38.21,116.59,71,144.86,26.62,22.94,65.95,22.94,92.56,0,32.8-28.27,71-96.25,71-144.86,0-17.66-2.26-33.57-6.42-47.7-4.9-16.65-12.44-30.82-22.03-42.45,4.59-1.41,9.1-2.97,13.42-4.64v.02s1.05-.42,1.05-.42l.69-.27h0c9.85-3.92,18.5-8.37,25.72-13.24,6.36,10.85,12.01,22.51,16.87,34.86,12.79,32.53,20.06,69.8,20.06,109.41Z"/>
        <path class="cls-1" d="M387.06,69.04s-.04.04-.07.06c-1.77,1.53-3.44,3.21-4.97,5-.34.4-.67.8-1,1.21-4.31,5.36-7.38,11.45-9.14,18.09l-.66,2.47-.66-2.46c-1.08-4.11-2.71-8.07-4.83-11.77-4.39-7.67-10.73-13.96-18.4-18.28,4.36-.87,7.65-4.71,7.65-9.33,0-5.25-4.26-9.51-9.51-9.51s-9.51,4.26-9.51,9.51c0,4.54,3.19,8.34,7.45,9.28-5.49,3.08-10.26,7.1-14.2,12.01-.96,1.19-1.84,2.41-2.63,3.6-2.69,4.05-4.76,8.47-6.13,13.14l-1.04,3.81-.64-2.42s-.02-.09-.04-.13l-.88.26.86-.32c-2.49-9.25-7.59-17.5-14.75-23.85-2.58-2.3-5.42-4.32-8.45-6.03,5.62-.95,9.91-5.83,9.91-11.71,0-6.57-5.33-11.9-11.9-11.9s-11.89,5.33-11.89,11.9c0,5.87,4.27,10.75,9.87,11.71-5.45,3.07-10.19,7.07-14.12,11.96-4.3,5.35-7.38,11.44-9.15,18.09l-.65,2.46-.66-2.46c-2.2-8.28-6.56-15.87-12.61-21.95-.08-.08-.15-.15-.23-.23,1.46-3.1,2.81-6.26,4.02-9.48l-.28-.13c-1.55,2.88-3.17,5.73-4.85,8.55-2.85-2.66-6.02-4.98-9.44-6.89,5.36-1.14,9.39-5.91,9.39-11.62,0-6.57-5.33-11.9-11.89-11.9s-11.9,5.33-11.9,11.9c0,6.06,4.53,11.04,10.38,11.79-5.39,3.05-10.09,7.03-13.98,11.88-4.25,5.28-7.3,11.27-9.05,17.76-.03.09-.06.19-.1.34l-.65,2.46-.7-2.61c-.06-.23-.12-.46-.19-.68-3.5-12.33-11.81-22.86-22.92-29.16,4.54-.72,8.03-4.64,8.03-9.39,0-5.25-4.26-9.51-9.51-9.51s-9.51,4.26-9.51,9.51c0,4.43,3.04,8.15,7.14,9.2-5.54,3.08-10.37,7.13-14.35,12.09-1.54,1.92-2.93,3.96-4.16,6.07-2.18,3.75-3.85,7.79-4.98,12.01l-.66,2.47-.66-2.46c-1.96-7.4-5.69-14.33-10.79-20.05-1.21-1.34-2.48-2.62-3.79-3.8-.02-.02-.06-.05-.08-.07,4.56-6.47,9.4-12.56,14.49-18.26,2.23-2.49,4.51-4.9,6.82-7.24C197.45,16.32,231.34,0,268,0s70.11,16.11,97.52,43.45h0c2.51,2.5,4.95,5.08,7.35,7.76.65.72,1.29,1.46,1.93,2.19.15.17.29.32.42.49.53.61,1.05,1.21,1.56,1.83.21.24.42.5.62.75,1.04,1.24,2.06,2.5,3.07,3.78.33.41.66.82.97,1.24.98,1.25,1.95,2.52,2.9,3.81.49.66.97,1.31,1.45,1.98.01,0,.01,0,.01.01.02.02.05.06.06.09.01,0,.02.01.01.02.39.54.78,1.09,1.17,1.64Z"/>
      </g>
    </g>
    <g>
      <path class="cls-1" d="M39.98,481.22c.15,0,.93,1.34,2.34,4,.2.45.19.84-.04,1.17-.23.33-.62.67-1.17,1.02-.6.4-1.01.76-1.21,1.06-.2.3-.18.71.08,1.21,1.16,1.96,3.2,5.49,6.12,10.58l.08.08c0,.05.02.08.08.08,1.16,2.07,3.12,5.52,5.89,10.35,3.78,6.6,6.62,11.56,8.54,14.89l21.46-36.12-2.95-4.46,1.51-3.85h21.16l-1.59,4-6.42,3.93-28.11,44.74c.1,3.12.1,7.56,0,13.3-.05,3.43-.08,6.05-.08,7.86v15.26c-.05,1.11-.08,2.9-.08,5.36v5.21c0,.5.2.92.6,1.25.4.33,1.01.67,1.81,1.02.76.4,1.35.76,1.78,1.06.43.3.64.68.64,1.13.15,2.67.15,4,0,4H30.46c-.05,0-.09-.54-.11-1.62-.03-1.08.01-1.93.11-2.53.05-.4.28-.74.68-1.02.4-.28,1.01-.57,1.81-.87.76-.3,1.33-.59,1.74-.87.4-.28.6-.67.6-1.17v-47.46c-.1-.2-.28-.48-.53-.83-.6-.81-1.01-1.41-1.21-1.81-.05-.05-.1-.12-.15-.23,0-.05-.03-.08-.08-.08-.05-.1-.13-.25-.23-.45-.1-.2-.2-.35-.3-.45-10.58-18.49-18.36-32.04-23.35-40.65-.25-.45-.66-.82-1.21-1.1-.56-.28-1.31-.59-2.27-.94-.96-.3-1.71-.58-2.27-.83-.56-.25-1.01-.6-1.36-1.06-.4-.6-.91-1.45-1.51-2.53-.6-1.08-.88-1.62-.83-1.62h39.98Z"/>
      <path class="cls-1" d="M129.9,502.15c-.15.1-.4.23-.76.38-.71.4-1.52.73-2.46.98-.93.25-2.33.38-4.19.38-3.38,0-6.39-1.02-9.03-3.06-2.65-2.04-3.97-5.23-3.97-9.56s1.41-8.03,4.23-10.81c2.87-2.82,6.47-4.23,10.81-4.23s7.78,1.36,10.65,4.08c2.87,2.77,4.31,6.12,4.31,10.05,0,4.33-1.81,9.09-5.44,14.28-2.02,2.82-4.23,5.45-6.65,7.9-2.42,2.44-5.29,5-8.61,7.67-.81.6-1.62.72-2.46.34-.83-.38-1.42-1.01-1.78-1.89-.35-.88-.28-1.65.23-2.3.6-.86,1.64-1.79,3.1-2.8,1.46-1.01,2.88-2.12,4.27-3.32,1.38-1.21,3.14-3,5.25-5.37.35-.4.68-.78.98-1.13.2-.25.55-.63,1.06-1.13.15-.15.3-.3.45-.45Z"/>
      <path class="cls-1" d="M187.18,481.22c.1,0,.1,1.31,0,3.93-.05.5-.28.91-.68,1.21-.4.3-1.01.63-1.81.98-.76.4-1.34.76-1.74,1.06-.4.3-.6.71-.6,1.21v91.28c0,.5.19.91.57,1.21s.97.66,1.78,1.06c.81.35,1.41.68,1.81.98.4.3.63.71.68,1.21.1,2.62.1,3.93,0,3.93h-40.05c-.05-2.12-.05-3.48,0-4.08.1-.45.35-.82.76-1.1.4-.28.98-.57,1.74-.87.81-.3,1.4-.59,1.78-.87.38-.28.57-.64.57-1.1.05-3.22.08-9.45.08-18.66v-32.72c0-18.29-.03-31.84-.08-40.65,0-.45-.19-.82-.57-1.1-.38-.28-.97-.57-1.78-.87-.76-.3-1.34-.59-1.74-.87-.4-.28-.66-.64-.76-1.1-.05-.6-.05-1.96,0-4.08h40.05Z"/>
      <path class="cls-1" d="M194.82,533.66c0-8.56,1.28-16.32,3.85-23.27,2.52-6.9,6.17-12.74,10.96-17.53,4.79-4.79,10.53-8.49,17.23-11.11,6.75-2.57,14.36-3.85,22.82-3.85s16.07,1.28,22.82,3.85c6.75,2.62,12.49,6.32,17.23,11.11,4.79,4.79,8.46,10.63,11.03,17.53,2.52,6.9,3.78,14.66,3.78,23.27s-1.26,16.3-3.78,23.2c-2.57,6.9-6.25,12.75-11.03,17.53-4.74,4.79-10.48,8.49-17.23,11.11-6.75,2.57-14.36,3.85-22.82,3.85s-16.07-1.28-22.82-3.85c-6.7-2.57-12.44-6.27-17.23-11.11-4.79-4.79-8.44-10.63-10.96-17.53-2.57-6.95-3.85-14.69-3.85-23.2ZM226.86,524.22c0,9.37.96,17.78,2.87,25.24,1.86,7.51,4.21,13.85,7.03,19.04,2.82,5.24,5.97,9.25,9.45,12.02,3.43,2.77,6.65,4.16,9.67,4.16,3.17,0,5.84-1.28,8.01-3.85,2.12-2.57,3.8-5.87,5.06-9.9,1.26-4.03,2.17-8.49,2.72-13.38.55-4.89.83-9.65.83-14.28,0-9.52-.93-18.01-2.8-25.47-1.86-7.51-4.21-13.85-7.03-19.04-2.87-5.24-6-9.24-9.37-12.02-3.38-2.77-6.65-4.16-9.82-4.16s-5.62,1.28-7.78,3.85c-2.12,2.57-3.85,5.87-5.21,9.9-1.31,4.03-2.24,8.51-2.8,13.45-.56,4.99-.83,9.8-.83,14.43Z"/>
      <path class="cls-1" d="M352.22,481.14h5.67c7.1,0,13.68.94,19.72,2.83,6.05,1.89,10.91,4.81,14.58,8.77,3.68,3.96,5.49,8.88,5.44,14.77-.05,5.24-1.46,10.09-4.23,14.55-2.77,4.46-8.67,7.7-17.68,9.71,3.93,7.61,9.22,17.99,15.87,31.13,1.61,3.22,2.85,5.72,3.7,7.48l.08.15c.7,1.11,1.81,2.92,3.32,5.44,1.51,2.47,2.57,4.18,3.17,5.14.3.5.76.92,1.36,1.25.6.33,1.41.67,2.42,1.02,1.01.4,1.81.76,2.42,1.06s1.08.71,1.44,1.21c1.66,2.47,2.44,3.7,2.34,3.7h-39.97c-.05,0-.4-.5-1.06-1.51-.66-1.01-1.13-1.79-1.44-2.34-.2-.45-.18-.82.08-1.1.25-.28.65-.57,1.21-.87.6-.3,1.02-.59,1.25-.87.23-.28.19-.64-.11-1.1-.66-.91-3.04-5.48-7.14-13.72-4.11-8.24-9.58-19.33-16.44-33.29-.35-.65-.6-1.13-.76-1.44h-.08v47.68c0,.5.19.92.57,1.25.38.33.97.67,1.78,1.02.81.4,1.41.76,1.81,1.06.4.3.63.68.68,1.13.1,2.67.1,4.01,0,4.01h-40.05c-.05-2.17-.05-3.55,0-4.16.1-.4.35-.74.76-1.02.4-.28.98-.57,1.74-.87.81-.3,1.4-.59,1.78-.87.38-.28.57-.67.57-1.17.05-3.12.08-9.22.08-18.29v-33.02c0-18.29-.03-31.84-.08-40.65,0-.45-.19-.82-.57-1.1-.38-.28-.97-.59-1.78-.94-.76-.3-1.34-.58-1.74-.83-.4-.25-.66-.6-.76-1.06-.05-.6-.05-1.99,0-4.16h40.05ZM349.8,487.34h-.08c-.81.4-1.4.76-1.78,1.06-.38.3-.57.71-.57,1.21v37.78c7,.6,12.06-.69,15.19-3.89,3.12-3.2,4.71-8.7,4.76-16.51,0-5.24-.48-9.28-1.44-12.13-.96-2.85-2.39-4.85-4.31-6.01-1.91-1.16-4.41-1.74-7.48-1.74-1.21,0-2.65.08-4.31.23Z"/>
      <path class="cls-1" d="M489.45,558.3h-40.58c-5.95,14.21-9.12,21.79-9.52,22.75-.2.4-.18.77.08,1.1.25.33.65.74,1.21,1.25,1.06.86,1.61,1.56,1.66,2.12.05.6-.5,1.91-1.66,3.93h-21.23c.76-2.27,1.33-3.63,1.74-4.08.45-.55,1.49-1.11,3.1-1.66.96-.35,1.7-.68,2.23-.98.53-.3.89-.73,1.1-1.28,3.43-8.16,15.92-38.19,37.48-90.08l-.53-1.36c-.2-.55-.55-.97-1.06-1.25-.5-.28-1.21-.54-2.12-.79-1.51-.45-2.49-.96-2.95-1.51-.5-.6-1.13-2.29-1.89-5.06h35.14l36.42,99.52,6.42,4.46,1.51,4h-40.05l-1.51-4.16,3.4-3.93-8.39-22.97ZM453.63,546.66h31.59c-5.95-16.17-10.88-29.65-14.81-40.43-6.5,15.72-12.09,29.19-16.78,40.43Z"/>
    </g>
  </g>
</svg>