<?xml version="1.0" encoding="UTF-8"?>
<svg id="Layer_2" data-name="Layer 2" xmlns="http://www.w3.org/2000/svg" viewBox="0 0 858.34 518.13">
  <defs>
    <style>
      .cls-1 {
        fill: none;
        stroke: #fca9b3;
        stroke-linecap: round;
        stroke-linejoin: round;
        stroke-width: 8px;
      }
    </style>
  </defs>
  <g id="Layer_1-2" data-name="Layer 1">
    <path class="cls-1" d="M86.79,155.78l171.3-98.9c13.99,24.24-169.78,109.26-169.78,109.26,1.79,3.11,262.8-151.73,262.8-151.73C375.49,56.62-.62,165.9,24.07,208.67L337.92,27.47S75.29,159.2,86.63,178.84c4.84,8.38,260.42-150.35,260.42-150.35L46.81,206.74C72.68,251.56,384.19-15.35,396.01,5.12L60.17,209.86S360.77-10.04,380.84,24.72c5.92,10.25-317.58,189.67-317.58,189.67,10.5,18.19,308.17-177.92,308.17-177.92C388.74,66.47,27.81,176.89,54.66,223.4c0,0,346.03-254.5,369.73-213.46C439.74,36.52,9,173.68,43.31,233.11c2.89,5,362.11-256.06,382.46-220.81L32.76,250.34C56.14,290.83,444.77,12.46,444.77,12.46c0,0-453.79,233.56-440.29,256.94L408.14,36.35C421.82,60.05-10.64,191.16,29.46,260.61L461.19,11.35S2.54,277.54,4,280.07c0,0,439.89-310.76,464.48-268.17L20.16,277.91c5.26,9.1,381.46-308.81,419.82-242.38L13.29,291.96S463,28.85,464.5,31.45L40.53,284.65S422.65-.38,450.54,47.93c0,0-431.12,180.79-398.22,237.77,10.23,17.72,416.88-240.69,416.88-240.69C484.99,72.37-27.86,251.45,8.69,314.76L459.47,54.5,17.81,313.68c31.84,55.14,406.89-234.92,406.89-234.92C441.69,108.19,13.62,295.33,26.76,318.1c10.94,18.95,459.88-265.51,459.88-265.51,8,13.86-468.27,274.86-468.27,274.86,0,0,442.7-342.67,480.41-277.36,0,0-481.82,226.01-455.24,272.04,0,0,399.95-302.05,430.75-248.7L87.38,306.17c1.48,2.56,386.18-241.59,394.25-227.62,38.71,67.05-424.61,209.79-407.71,239.06,0,0,319.26-272.55,357.46-206.38,17.12,29.65-332.35,200.98-332.35,200.98L468.21,99.06c5.63,9.75-412.31,171.07-381.63,224.21,0,0,406.56-256.45,415.97-240.16L59.21,348,479.74,105.21,74.12,342.05c34.9,60.44,429.88-248.19,429.88-248.19,30.13,52.19-412.83,240.83-412.83,240.83,0,0,422.63-300.17,446.95-258.05,55.31,95.79-467.49,281.34-467.49,281.34,32.08,55.56,448-258.65,448-258.65l-386.45,234.39S538.68,53.23,558.52,87.58l-427.8,253.88c34.89,60.44,464.14-267.97,464.14-267.97,70.22,121.62-505.72,303.33-505.72,303.33,0,0,482.27-359.83,517.51-298.79,0,0-518.88,301.16-515.6,306.84C147.76,483.11,636.63,58.17,641.71,66.95c21.26,36.83-540.95,296.19-530.36,314.53C153.3,454.16,637.29,16.7,663.76,62.54c60.91,105.49-575.03,225.75-526.46,309.89,0,0,512.95-356.63,539.14-311.27,13.86,24-533.12,272-516.55,300.7,0,0,484.02-292.76,489.79-282.78,0,0-513.87,285.02-505.82,298.96,26.69,46.22,583.1-336.65,583.1-336.65C812.87,190.22,112.86,341.45,141.41,390.92c0,0,482.86-416,542.28-313.09,47.87,82.91-544.15,316.48-544.15,316.48,29.07,50.36,588.3-339.66,588.3-339.66C807.44,192.53,152.61,391.79,152.61,391.79,168.72,419.69,664.93-4.44,708.42,70.89c28.92,50.09-580.3,178.73-509.71,301L670.88,99.29c71,122.97-478.83,280.13-478.83,280.13,11.57,20.04,545.48-321.9,548.5-316.67,72.04,124.78-588.11,186.81-518.38,307.58,0,0,434.64-344.42,475.12-274.31,0,0-461.77,196.15-426.33,257.54,13.74,23.8,448.49-258.94,448.49-258.94,0,0-476.43,211.44-447.3,261.9,3.45,5.97,415.83-288.75,436.9-252.25l-393.76,238.51,442.23-255.32S239.33,264.67,295.66,362.24c0,0,393.74-275.39,414.55-239.34,49.84,86.32-481.8,149.31-423.75,249.85L735.26,113.63l-383.44,230.48c20.47,35.45,365.31-210.91,365.31-210.91,7.17,12.42-375.01,220.67-375.01,220.67,13.95,24.16,334.37-257.73,362.38-209.22l-402.36,234.95,436.07-251.77c25.8,44.69-448.12,239.22-436.11,260.01l405.01-233.83c19.13,33.14-405.06,241.24-405.06,241.24l462.52-267.03c38.15,66.08-463.12,134.19-403.12,238.12,5.94,10.28,400.82-231.41,400.82-231.41l-446.14,265.83c28.11,48.69,369.15-283.09,399.44-230.62l-364.63,216.58c21.31,36.92,408.98-237.32,409.5-236.42,57.29,99.23-451.89,152.93-400.25,242.37,0,0,334.16-214.67,343.57-198.36,0,0-410.04,174.44-380.79,225.1,3.5,6.07,401.08-231.57,401.08-231.57,22.76,39.42-382.01,227.77-382.01,227.77,0,0,403.43-243.66,408.08-235.6,57.48,99.55-409.96,169.97-379.35,222.99,7.14,12.37,314.91-181.81,314.91-181.81,36.89,63.89-351.37,210.83-351.37,210.83,30.08,52.11,338.16-195.24,338.16-195.24,8.79,15.22-297.09,144.56-282.44,169.95,3.07,5.32,285.19-164.65,285.19-164.65,40.34,69.88-346.03,110.77-304.16,183.29,23.07,39.96,315.24-211.45,327.99-189.37.52.9-373.01,223.46-373.01,223.46l377.25-217.81s-421.11,122.55-366.11,217.81c0,0,340.51-233.08,356.31-205.71,4.66,8.07-388.08,130.43-346.27,202.85l340.63-196.66c14.81,25.66-326.39,195.53-326.39,195.53,29.65,51.35,390.3-234.05,394.07-227.52,0,0-352.55,200.26-347.51,208.99,24.25,42.01,346.25-199.91,346.25-199.91,4.95,8.57-336.03,200.11-336.03,200.11l333.09-192.31c.73,1.26-354.83,158.29-332.74,196.54,0,0,372.81-233.81,380.85-219.88l-432.92,258.06s444.57-257.95,445.12-256.99l-377.68,225.2,343.44-198.29c43.44,75.24-353.55,190.9-345.6,204.66,37.01,64.11,377.74-218.09,377.74-218.09,63.24,109.53-437.98,259.5-437.98,259.5,33.07,57.28,386.75-301.94,420.81-242.95,32.35,56.03-361.43,218.82-361.43,218.82l383.12-221.19s-419.46,170.67-386.62,227.54c0,0,356.59-220.24,362.81-209.47,0,0-347.05,180.85-335.76,200.42,11.62,20.13,332.08-259.93,361.62-208.78,9.41,16.3-373.57,218.54-373.57,218.54,1.84,3.18,364.93-214,366.37-211.52,31.69,54.88-420.97,188.55-394.99,233.56l367.37-212.1c33.67,58.32-364.83,187.15-350.35,212.24,14.92,25.85,416.12-240.25,416.12-240.25,62.84,108.84-462.3,183.25-424.93,247.98.41.72,428.5-247.4,428.5-247.4,48.66,84.28-399.15,235.49-399.15,235.49l339.22-195.85c23.53,40.76-324.17,191.93-324.17,191.93,0,0,367.26-234.41,376.94-217.63l-389.56,229.65c2.71,4.7,323.08-239.29,345.92-199.72,0,0-313.6,152.18-298.61,178.14,9.18,15.91,328.03-216.74,339.87-196.22,1.4,2.42-361.59,215.52-361.59,215.52,25,43.3,334.8-244.36,356.91-206.06,44.69,77.4-409.45,133.4-360.67,217.89,0,0,348.7-211.96,353.31-203.98,13.99,24.24-340.79,199.36-340.79,199.36,0,0,296.86-199.23,308.92-178.35.77,1.33-262.83,156.86-262.83,156.86,0,0,272.48-187.93,285.74-164.97,18.82,32.59-253.88,150.98-253.88,150.98l244.49-141.15s-288.52,99.54-257.67,152.97c0,0,258.03-163.68,264.4-152.65,43.5,75.35-336.9,113.08-298.95,178.81,0,0,287.37-213.37,307.92-177.78l-278.45,170.93,251.6-145.26-211.1,124.69,202.71-117.04c20.88,36.17-170.82,101.1-170.82,101.1,3.63,6.29,198.01-137.16,207.9-120.03,0,0-245.03,120.3-231.6,143.56l183.64-106.02s-172.56,100.67-171.88,101.85c1.87,3.24,192.68-111.74,192.89-111.37"/>
  </g>
</svg>