<?xml version="1.0" encoding="UTF-8"?>
<svg id="Layer_2" data-name="Layer 2" xmlns="http://www.w3.org/2000/svg" viewBox="0 0 939.79 275.87">
  <defs>
    <style>
      .cls-1 {
        fill: #a36532;
      }
    </style>
  </defs>
  <g id="Layer_1-2" data-name="Layer 1">
    <g>
      <g>
        <g>
          <g>
            <path class="cls-1" d="M164.92,110.68l-.37.64c-4.83-1.96-9.64-3.36-14.7-3.9-2.92-.31-5.92-.39-8.82-.14-1.94.15-3.85.6-5.7,1.1-3.78,1.06-7.52,1.51-11.44,2.13-2.01.29-4.07.6-6.34.8l-.42-.61c3.37-5.53,10.78-9.4,17.18-9.59,6.63-.09,13.44.65,19.54,3.17,4.02,1.65,7.77,3.79,11.09,6.4Z"/>
            <path class="cls-1" d="M159.26,121.17c-3.56,2.79-7.76,4.87-12.14,6.15-9.53,2.82-21.38,1.37-28.41-6.15,6.53,3.54,14.03,4.93,21.38,4.46,6.62-.43,12.83-2.31,19.16-4.46Z"/>
          </g>
          <g>
            <path class="cls-1" d="M84.51,110.7l-.42.61c-2.27-.2-4.33-.51-6.34-.8-3.92-.62-7.66-1.07-11.44-2.13-4.01-1.18-8.23-1.43-12.4-1.14h0c-.32.02-.64.05-.97.08-.06,0-.12.01-.19.02-.05,0-.1,0-.14.01-.16.01-.31.03-.47.05-.05,0-.1,0-.15.02-.14.01-.29.03-.43.05-.02,0-.04,0-.06,0-.22.02-.44.05-.66.08-.34.04-.68.09-1.01.14-.34.05-.67.1-1.01.16-.49.09-.97.18-1.45.28-.1.02-.19.04-.29.06-.28.06-.57.12-.85.19-.22.05-.44.1-.66.16-.02,0-.04.01-.06.01h0c-2.83.7-5.64,1.65-8.43,2.79l-.37-.64c.71-.56,1.45-1.1,2.2-1.61,6.35-4.39,13.9-7.23,21.7-7.72,2.22-.14,4.46-.31,6.72-.24,1.37.04,2.73.24,4.06.56h0c3.04.74,5.91,2.17,8.43,4.03,1.83,1.39,3.5,2.96,4.69,5Z"/>
            <path class="cls-1" d="M82.92,121.17c-7.02,7.52-18.88,8.96-28.41,6.15-4.38-1.27-8.57-3.35-12.14-6.15,6.33,2.14,12.54,4.03,19.16,4.46,7.35.47,14.86-.92,21.38-4.46Z"/>
          </g>
        </g>
        <g>
          <path class="cls-1" d="M100.82,162.92c-3.71,2-9.25,1.99-12.96,0,3.71-1.99,9.25-2,12.96,0Z"/>
          <path class="cls-1" d="M113.78,162.92c-3.71,2-9.25,1.99-12.96,0,3.71-1.99,9.25-2,12.96,0Z"/>
        </g>
      </g>
      <g>
        <path class="cls-1" d="M52.94,107.31c-.06,0-.12.01-.19.02-.05,0-.1,0-.14.01-.16.01-.31.03-.47.05-.05,0-.1,0-.15.02-.14.01-.29.03-.43.05-.02,0-.04,0-.06,0-.22.02-.44.05-.66.08-.34.04-.68.09-1.01.14-.34.05-.67.1-1.01.16-.49.09-.97.18-1.45.28-.1.02-.19.04-.29.06-.28.06-.57.12-.85.19-.22.05-.44.1-.66.16-.02,0-.04.01-.06.01,2.77-.31,5.57-.73,8.39-1.3-.32.02-.64.05-.97.08ZM67.33,101.11c-2.26-.07-4.51.1-6.72.24-7.8.49-15.35,3.33-21.7,7.72,2.16-.11,4.37-.28,6.6-.53h0c2.77-.31,5.57-.73,8.39-1.3h0c5.86-1.17,11.78-2.96,17.48-5.56-1.33-.33-2.69-.52-4.06-.56ZM12.79,187.67s.01.02.02.03c.02-.26.05-.52.08-.79-.03.25-.07.5-.1.75ZM52.94,107.31c-.06,0-.12.01-.19.02-.05,0-.1,0-.14.01-.16.01-.31.03-.47.05-.05,0-.1,0-.15.02-.14.01-.29.03-.43.05-.02,0-.04,0-.06,0-.22.02-.44.05-.66.08-.34.04-.68.09-1.01.14-.34.05-.67.1-1.01.16-.49.09-.97.18-1.45.28-.1.02-.19.04-.29.06-.28.06-.57.12-.85.19-.22.05-.44.1-.66.16-.02,0-.04.01-.06.01,2.77-.31,5.57-.73,8.39-1.3-.32.02-.64.05-.97.08Z"/>
        <path class="cls-1" d="M201.63,139.04c0,14.16-3.43,27.82-9.02,40.7-1.15-3.57-2.51-7.07-4.09-10.46-2.92-6.26-6.63-12.14-11.02-17.43-.72-.87-1.46-1.73-2.22-2.57-.39-.43-.77-.85-1.17-1.27,2.43,3.49,4.58,7.15,6.41,10.93,4.52,9.25,7,19.36,7.9,29.57-2.45,4.68-5.15,9.24-8.06,13.66-.41-2.9-1.03-5.76-1.89-8.56-2.22-7.39-6.14-14.17-11.18-19.93-.13-.15-.26-.3-.4-.45-.64-.72-1.3-1.42-1.97-2.1,2.57,3.51,4.76,7.25,6.45,11.17,3.84,8.72,4.77,18.26,3.65,27.59-3.93,5.37-8.1,10.5-12.39,15.38-.36-2.02-.76-4.03-1.2-6.04-.27-1.37-.56-2.74-.89-4.1-.8-3.35-1.78-6.64-2.93-9.86-.34-1.02-.7-2.04-1.08-3.05-1.27-3.33-2.74-6.6-4.57-9.65-.34-.63-.68-1.25-1.03-1.87,5.18,12.96,7,26.84,6.2,40.61-3.99,4.24-8.03,8.25-12.02,12-.16-1.2-.34-2.39-.55-3.57,0-.01,0-.03,0-.04-.37-2.18-.81-4.34-1.33-6.48-.7-2.95-1.55-5.86-2.53-8.71-1.88-5.48-4.26-10.75-7.09-15.72,5.02,12.56,6.89,25.99,6.27,39.34-4.29,3.85-8.45,7.38-12.37,10.56.22-4.01.22-8.02-.03-12.01-.54-8.85-2.32-17.54-5.26-25.72,1.29,6.14,1.87,12.35,1.84,18.55-.01,2.36-.11,4.72-.3,7.08-.47,5.86-1.46,11.68-2.92,17.38-7.24,5.58-13.15,9.65-16.62,11.96l-3.49-48.45-3.48,48.33c-3.59-2.39-9.62-6.56-16.99-12.26-1.07-4.42-1.86-8.9-2.33-13.42-.29-2.77-.47-5.56-.52-8.35-.13-6.61.45-13.25,1.83-19.81-4.24,11.6-5.84,24.1-5.34,36.52-3.91-3.17-8.06-6.7-12.32-10.53-.59-13.29,1.28-26.66,6.28-39.16-2.54,4.39-4.66,9.01-6.4,13.78-1.29,3.52-2.36,7.12-3.23,10.77-.77,3.24-1.39,6.52-1.85,9.82-4.15-3.91-8.35-8.1-12.49-12.53-.63-12.2.8-24.48,4.82-36.11.19-.55.39-1.1.59-1.65.27-.72.54-1.44.83-2.16-6.03,10.44-9.74,22.16-11.45,34.17-4.52-5.14-8.9-10.58-12.98-16.27-.06-.56-.11-1.11-.15-1.67-.44-5-.12-10.02.9-14.89.95-3.42,2.08-6.78,3.43-10.06,1.26-3.01,2.73-5.95,4.53-8.69.01-.02.03-.05.04-.07.47-.7.97-1.39,1.48-2.07-8.53,8.52-13.43,18.88-15.28,30.08-2.83-4.37-5.46-8.86-7.83-13.48.02-.26.05-.52.08-.79,0-.03,0-.06.01-.09.73-5.79,1.86-11.54,3.49-17.15,1.15-3.68,2.56-7.27,4.25-10.75,1.83-3.79,3.98-7.44,6.41-10.93-.19.19-.37.39-.54.59-.42.44-.83.9-1.23,1.35-7.5,8.44-12.95,18.48-16.52,29.18-5.43-12.69-8.75-26.14-8.75-40.07,0-23.97,4.4-46.51,12.13-66.19,2.94-7.47,6.36-14.52,10.2-21.09,4.24,2.86,9.3,5.48,15.02,7.79l1.03.41h0c9.65,3.77,20.74,6.59,33,8.36-1.53,1.48-3.1,2.91-4.72,4.28-8.87,7.48-19.07,13.43-30.02,17.31-3.33,1.19-6.73,2.17-10.19,2.96l.04.18c3.7-.69,7.36-1.64,10.95-2.82,3.67-1.2,7.27-2.64,10.77-4.29,9.2-4.43,17.86-10.27,25.35-17.32.15.02.3.04.45.06,8.65,1.13,17.67,1.7,26.81,1.7,2.98,0,5.96-.06,8.87-.18-7.23,9.33-17.31,18.63-29.5,26.62-1.51.99-3.06,1.91-4.62,2.76-1.37.74-2.77,1.44-4.17,2.08h0c-1.33-.33-2.69-.52-4.06-.56-2.26-.07-4.51.1-6.72.24-7.8.49-15.35,3.33-21.7,7.72-3.02.15-5.95.18-8.76.12-.19,2.7-.29,5.47-.29,8.33,0,29.41,23.11,70.53,42.96,87.63,16.1,13.88,39.9,13.88,56,0,19.84-17.1,42.96-58.23,42.96-87.63,0-10.69-1.37-20.31-3.88-28.86-2.96-10.07-7.52-18.64-13.33-25.68,2.78-.85,5.5-1.8,8.12-2.81h0s.64-.24.64-.24l.41-.16h0c5.96-2.37,11.19-5.06,15.56-8.01,3.84,6.56,7.26,13.62,10.2,21.09,7.74,19.68,12.13,42.23,12.13,66.19Z"/>
        <path class="cls-1" d="M172.85,41.77s-.03.02-.04.03c-1.07.93-2.08,1.94-3.01,3.02-.21.24-.41.49-.61.73-2.61,3.24-4.47,6.93-5.53,10.94l-.4,1.49-.4-1.49c-.66-2.49-1.64-4.88-2.92-7.12-2.66-4.64-6.49-8.45-11.13-11.06,2.64-.53,4.63-2.85,4.63-5.64,0-3.18-2.58-5.76-5.76-5.76s-5.76,2.58-5.76,5.76c0,2.75,1.93,5.04,4.51,5.62-3.32,1.86-6.21,4.3-8.59,7.26-.58.72-1.11,1.46-1.59,2.18-1.63,2.45-2.88,5.12-3.71,7.95l-.63,2.3-.39-1.47s-.01-.06-.02-.08l-.53.16.52-.19c-1.5-5.6-4.59-10.59-8.92-14.43-1.56-1.39-3.28-2.62-5.11-3.65,3.4-.57,5.99-3.53,5.99-7.09,0-3.97-3.22-7.2-7.2-7.2s-7.19,3.22-7.19,7.2c0,3.55,2.58,6.5,5.97,7.08-3.3,1.86-6.17,4.28-8.54,7.23-2.6,3.24-4.47,6.92-5.53,10.95l-.39,1.49-.4-1.49c-1.33-5.01-3.97-9.6-7.63-13.28-.05-.05-.09-.09-.14-.14.89-1.87,1.7-3.79,2.43-5.74l-.17-.08c-.94,1.74-1.92,3.47-2.93,5.17-1.72-1.61-3.64-3.02-5.71-4.17,3.24-.69,5.68-3.58,5.68-7.03,0-3.97-3.22-7.2-7.19-7.2s-7.2,3.22-7.2,7.2c0,3.66,2.74,6.68,6.28,7.13-3.26,1.84-6.1,4.26-8.46,7.19-2.57,3.2-4.42,6.82-5.47,10.74-.02.06-.04.11-.06.2l-.39,1.49-.42-1.58c-.04-.14-.07-.28-.11-.41-2.12-7.46-7.15-13.83-13.87-17.64,2.75-.43,4.86-2.81,4.86-5.68,0-3.18-2.58-5.76-5.76-5.76s-5.76,2.58-5.76,5.76c0,2.68,1.84,4.93,4.32,5.57-3.35,1.86-6.27,4.32-8.68,7.31-.93,1.16-1.77,2.39-2.52,3.67-1.32,2.27-2.33,4.71-3.01,7.27l-.4,1.49-.4-1.49c-1.19-4.48-3.44-8.67-6.53-12.13-.73-.81-1.5-1.59-2.29-2.3-.01-.01-.03-.03-.05-.04,2.76-3.91,5.69-7.6,8.77-11.05,1.35-1.51,2.73-2.97,4.13-4.38C58.13,9.87,78.64,0,100.82,0s42.42,9.75,59,26.29h0c1.52,1.51,3,3.07,4.45,4.7.39.44.78.88,1.17,1.33.09.1.17.2.26.3.32.37.63.73.94,1.11.13.15.26.3.38.45.63.75,1.25,1.51,1.86,2.29.2.25.4.5.59.75.59.76,1.18,1.53,1.75,2.3.3.4.59.79.88,1.2,0,0,0,0,0,0,.01.01.03.03.04.05,0,0,.01,0,0,.01.24.33.47.66.71.99Z"/>
      </g>
    </g>
    <g>
      <path class="cls-1" d="M287.3,66.12c.2,0,1.23,1.76,3.08,5.27.26.6.25,1.11-.05,1.54-.3.43-.81.88-1.54,1.34-.8.53-1.33.99-1.59,1.39-.27.4-.23.93.1,1.59,1.52,2.58,4.21,7.22,8.05,13.92l.1.1c0,.07.03.1.1.1,1.52,2.72,4.11,7.26,7.75,13.62,4.97,8.68,8.71,15.21,11.23,19.58l28.23-47.52-3.88-5.86,1.99-5.07h27.83l-2.09,5.27-8.45,5.17-36.98,58.85c.13,4.11.13,9.94,0,17.5-.07,4.51-.1,7.95-.1,10.34v20.08c-.07,1.46-.1,3.81-.1,7.06v6.86c0,.66.26,1.21.8,1.64.53.43,1.32.88,2.39,1.34.99.53,1.77.99,2.34,1.39.56.4.85.89.85,1.49.2,3.51.2,5.27,0,5.27h-52.58c-.07,0-.12-.71-.15-2.14-.03-1.42.02-2.53.15-3.33.07-.53.36-.98.89-1.34.53-.36,1.32-.74,2.39-1.14.99-.4,1.76-.78,2.29-1.14.53-.36.79-.88.79-1.54v-62.43c-.13-.26-.36-.63-.7-1.09-.8-1.06-1.33-1.85-1.59-2.39-.07-.07-.13-.16-.2-.3,0-.07-.03-.1-.1-.1-.07-.13-.17-.33-.3-.6-.13-.26-.27-.46-.4-.6-13.92-24.32-24.15-42.15-30.72-53.48-.33-.6-.86-1.08-1.59-1.44-.73-.36-1.72-.78-2.98-1.24-1.26-.4-2.25-.76-2.98-1.09-.73-.33-1.33-.8-1.79-1.39-.53-.8-1.19-1.9-1.99-3.33-.8-1.42-1.16-2.14-1.09-2.14h52.59Z"/>
      <path class="cls-1" d="M405.59,93.65c-.2.13-.53.3-.99.5-.93.53-2.01.96-3.23,1.29-1.23.33-3.07.5-5.52.5-4.44,0-8.4-1.34-11.88-4.03-3.48-2.68-5.22-6.87-5.22-12.57s1.85-10.57,5.57-14.22c3.78-3.71,8.51-5.57,14.22-5.57s10.24,1.79,14.02,5.37c3.78,3.65,5.67,8.05,5.67,13.22,0,5.7-2.39,11.96-7.16,18.79-2.65,3.71-5.57,7.17-8.75,10.39-3.18,3.22-6.96,6.58-11.33,10.09-1.06.8-2.14.94-3.23.45-1.09-.5-1.87-1.33-2.34-2.49-.46-1.16-.36-2.17.3-3.03.8-1.13,2.15-2.35,4.08-3.68,1.92-1.33,3.79-2.78,5.62-4.37,1.82-1.59,4.13-3.94,6.91-7.06.46-.53.89-1.03,1.29-1.49.26-.33.73-.83,1.39-1.49.2-.2.4-.4.6-.6Z"/>
      <path class="cls-1" d="M480.94,66.12c.13,0,.13,1.72,0,5.17-.07.66-.36,1.19-.89,1.59-.53.4-1.33.83-2.39,1.29-.99.53-1.76.99-2.29,1.39-.53.4-.79.93-.79,1.59v120.08c0,.66.25,1.19.74,1.59.5.4,1.28.86,2.34,1.39,1.06.46,1.85.89,2.39,1.29.53.4.83.93.89,1.59.13,3.45.13,5.17,0,5.17h-52.68c-.07-2.78-.07-4.57,0-5.37.13-.6.46-1.08.99-1.44.53-.36,1.29-.75,2.29-1.14,1.06-.4,1.84-.78,2.34-1.14.5-.36.75-.85.75-1.44.07-4.24.1-12.43.1-24.55v-43.04c0-24.06-.03-41.88-.1-53.48,0-.6-.25-1.08-.75-1.44-.5-.36-1.28-.75-2.34-1.14-.99-.4-1.76-.78-2.29-1.14-.53-.36-.86-.84-.99-1.44-.07-.8-.07-2.58,0-5.37h52.68Z"/>
      <path class="cls-1" d="M490.98,135.1c0-11.27,1.69-21.47,5.07-30.62,3.31-9.08,8.12-16.76,14.41-23.06,6.29-6.29,13.85-11.17,22.66-14.61,8.88-3.38,18.89-5.07,30.02-5.07s21.14,1.69,30.02,5.07c8.88,3.45,16.43,8.32,22.66,14.61,6.29,6.3,11.13,13.98,14.51,23.06,3.31,9.08,4.97,19.28,4.97,30.62s-1.66,21.44-4.97,30.52c-3.38,9.08-8.22,16.77-14.51,23.06-6.23,6.3-13.78,11.17-22.66,14.61-8.88,3.38-18.89,5.07-30.02,5.07s-21.14-1.69-30.02-5.07c-8.81-3.38-16.37-8.25-22.66-14.61-6.3-6.29-11.1-13.98-14.41-23.06-3.38-9.15-5.07-19.32-5.07-30.52ZM533.13,122.68c0,12.33,1.26,23.39,3.78,33.2,2.45,9.87,5.53,18.23,9.24,25.05,3.71,6.89,7.85,12.16,12.43,15.81,4.51,3.64,8.75,5.47,12.72,5.47,4.17,0,7.69-1.69,10.54-5.07,2.78-3.38,5-7.72,6.66-13.02,1.66-5.3,2.85-11.17,3.58-17.59.73-6.43,1.09-12.69,1.09-18.79,0-12.53-1.23-23.69-3.68-33.5-2.45-9.87-5.53-18.22-9.24-25.05-3.78-6.89-7.89-12.16-12.33-15.81-4.44-3.64-8.75-5.47-12.92-5.47s-7.39,1.69-10.24,5.07c-2.78,3.38-5.07,7.72-6.86,13.02-1.72,5.3-2.95,11.2-3.68,17.69-.73,6.56-1.09,12.89-1.09,18.99Z"/>
      <path class="cls-1" d="M698.04,66.02h7.46c9.34,0,17.99,1.24,25.94,3.73,7.95,2.49,14.35,6.33,19.19,11.53,4.84,5.2,7.22,11.68,7.16,19.43-.07,6.89-1.92,13.27-5.57,19.14-3.64,5.87-11.4,10.12-23.26,12.77,5.17,10.01,12.13,23.66,20.87,40.95,2.12,4.24,3.74,7.52,4.87,9.84l.1.2c.93,1.46,2.39,3.84,4.37,7.16,1.99,3.25,3.38,5.5,4.17,6.76.4.66.99,1.21,1.79,1.64.8.43,1.85.88,3.18,1.34,1.33.53,2.39.99,3.18,1.39.8.4,1.42.93,1.89,1.59,2.19,3.25,3.21,4.87,3.08,4.87h-52.58c-.07,0-.53-.66-1.39-1.99-.86-1.33-1.49-2.35-1.89-3.08-.27-.6-.23-1.08.1-1.44.33-.36.86-.75,1.59-1.14.8-.4,1.34-.78,1.64-1.14.3-.36.25-.85-.15-1.44-.86-1.19-3.99-7.21-9.39-18.04-5.4-10.84-12.61-25.43-21.62-43.79-.46-.86-.8-1.49-.99-1.89h-.1v62.73c0,.66.25,1.21.74,1.64.5.43,1.28.88,2.34,1.34,1.06.53,1.85.99,2.39,1.39.53.4.83.89.89,1.49.13,3.51.13,5.27,0,5.27h-52.68c-.07-2.85-.07-4.67,0-5.47.13-.53.46-.98.99-1.34.53-.36,1.29-.75,2.29-1.14,1.06-.4,1.84-.78,2.34-1.14.5-.36.75-.88.75-1.54.07-4.11.1-12.13.1-24.06v-43.44c0-24.06-.03-41.88-.1-53.48,0-.6-.25-1.08-.75-1.44-.5-.36-1.28-.78-2.34-1.24-.99-.4-1.76-.76-2.29-1.09-.53-.33-.86-.8-.99-1.39-.07-.8-.07-2.62,0-5.47h52.68ZM694.86,74.17h-.1c-1.06.53-1.84.99-2.34,1.39-.5.4-.74.93-.74,1.59v49.7c9.21.8,15.87-.91,19.98-5.12,4.11-4.21,6.2-11.45,6.26-21.72,0-6.89-.63-12.21-1.89-15.95-1.26-3.74-3.15-6.38-5.67-7.9-2.52-1.52-5.8-2.29-9.84-2.29-1.59,0-3.48.1-5.67.3Z"/>
      <path class="cls-1" d="M878.56,167.51h-53.38c-7.82,18.69-12,28.66-12.52,29.92-.27.53-.23,1.01.1,1.44.33.43.86.98,1.59,1.64,1.39,1.13,2.12,2.05,2.19,2.78.07.8-.66,2.52-2.19,5.17h-27.93c.99-2.98,1.76-4.77,2.29-5.37.6-.73,1.95-1.46,4.08-2.19,1.26-.46,2.24-.89,2.93-1.29.7-.4,1.18-.96,1.44-1.69,4.51-10.74,20.94-50.23,49.3-118.49l-.7-1.79c-.27-.73-.73-1.28-1.39-1.64-.66-.36-1.59-.71-2.78-1.04-1.99-.6-3.28-1.26-3.88-1.99-.66-.8-1.49-3.01-2.48-6.66h46.22l47.91,130.92,8.45,5.87,1.99,5.27h-52.69l-1.99-5.47,4.47-5.17-11.03-30.22ZM831.44,152.2h41.55c-7.82-21.27-14.31-39-19.48-53.18-8.55,20.68-15.9,38.4-22.07,53.18Z"/>
    </g>
  </g>
</svg>